<?xml version="1.0" encoding="utf-8"?>
<!-- Generator: Adobe Illustrator 24.0.3, SVG Export Plug-In . SVG Version: 6.00 Build 0)  -->
<svg version="1.1" id="Layer_1" xmlns="http://www.w3.org/2000/svg" xmlns:xlink="http://www.w3.org/1999/xlink" x="0px" y="0px"
	 viewBox="0 0 691 534" style="enable-background:new 0 0 691 534;" xml:space="preserve">
<style type="text/css">
	.st0{fill:none;stroke:#757679;stroke-width:0.5;stroke-miterlimit:10;}
	.st1{fill:none;stroke:#FFFFFF;stroke-width:0.5;stroke-miterlimit:10;}
	.st2{fill:none;stroke:#757679;stroke-miterlimit:10;}
	.st3{fill:#757679;}
	.st4{fill:#B30838;}
	.st5{fill:none;}
	.st6{fill:#B30838;stroke:#B30838;stroke-width:0.5;stroke-miterlimit:10;}
	.st7{fill:none;stroke:#B30838;stroke-width:0.25;stroke-miterlimit:10;}
	.st8{fill:none;stroke:#757679;stroke-width:0.75;stroke-miterlimit:10;}
</style>
<path class="st0" d="M142.26,469.38"/>
<path class="st1" d="M38.49,458.12"/>
<rect x="283.06" y="291.45" class="st2" width="2.86" height="11.66"/>
<rect x="290.44" y="291.45" class="st2" width="2.86" height="11.66"/>
<rect x="299" y="291.45" class="st2" width="2.86" height="11.66"/>
<rect x="306.14" y="291.45" class="st2" width="2.86" height="11.66"/>
<rect x="313.76" y="291.45" class="st2" width="2.86" height="11.66"/>
<rect x="322.09" y="291.45" class="st2" width="2.86" height="11.66"/>
<rect x="329.7" y="291.45" class="st2" width="2.86" height="11.66"/>
<rect x="336.84" y="291.45" class="st2" width="2.86" height="11.66"/>
<rect x="344.7" y="291.45" class="st2" width="2.86" height="11.66"/>
<rect x="352.31" y="291.45" class="st2" width="2.86" height="11.66"/>
<rect x="360.88" y="291.45" class="st2" width="2.85" height="11.66"/>
<rect x="368.01" y="291.45" class="st2" width="2.86" height="11.66"/>
<rect x="375.63" y="291.45" class="st2" width="2.86" height="11.66"/>
<rect x="382.53" y="291.45" class="st2" width="2.86" height="11.66"/>
<polygon class="st2" points="180.64,367.28 184.74,380.61 205.93,380.61 209.93,367.28 "/>
<rect x="137.93" y="381.99" class="st2" width="20.78" height="64.57"/>
<polygon class="st2" points="87.67,367.28 91.77,380.61 112.96,380.61 116.96,367.28 "/>
<rect x="184.89" y="381.99" class="st2" width="20.79" height="64.57"/>
<rect x="91.92" y="381.99" class="st2" width="20.79" height="64.57"/>
<polygon class="st2" points="133.68,367.28 137.79,380.61 158.98,380.61 162.97,367.28 "/>
<path class="st2" d="M431.98,448.25h45.54V379h-45.54V448.25z M451.89,387.87h9.13v32.37h-9.13V387.87z"/>
<polygon class="st2" points="431.85,378.05 477.63,378.05 481.64,364.25 427.55,364.25 "/>
<path class="st2" d="M524.89,364.25c-0.03,0.44-0.07,0.89-0.1,1.32c-0.28,4.16-0.57,8.32-0.86,12.48h40.65l3.59-13.8H524.89z"/>
<path class="st2" d="M524.47,379c-0.07,1.17-0.16,2.34-0.23,3.5l-1.83,16.71l1.83,49.04h39.82V379H524.47z M549.64,420.23h-8v-32.37
	h8V420.23z"/>
<polygon class="st0" points="231.39,380.61 252.58,380.61 256.58,367.28 227.28,367.28 "/>
<rect x="231.53" y="381.99" class="st2" width="20.79" height="64.57"/>
<g>
	<path class="st3" d="M74.13,463.88c-0.44-0.71-1.02-1.22-1.75-1.55c-0.73-0.32-1.49-0.48-2.28-0.48c-0.58,0-1.16,0.07-1.72,0.22
		c-0.56,0.15-1.07,0.36-1.51,0.66c-0.45,0.29-0.81,0.68-1.08,1.16c-0.27,0.48-0.41,1.04-0.41,1.69c0,0.5,0.08,0.94,0.23,1.33
		c0.16,0.39,0.41,0.73,0.76,1.05c0.35,0.31,0.83,0.6,1.44,0.88c0.6,0.27,1.34,0.54,2.22,0.81c0.85,0.27,1.68,0.56,2.48,0.87
		c0.8,0.31,1.51,0.71,2.12,1.19c0.61,0.48,1.1,1.08,1.47,1.8c0.36,0.72,0.55,1.62,0.55,2.7c0,1.1-0.22,2.06-0.66,2.87
		c-0.44,0.81-1.01,1.48-1.73,2.01c-0.72,0.53-1.55,0.93-2.48,1.19c-0.94,0.26-1.9,0.39-2.9,0.39c-0.65,0-1.29-0.06-1.94-0.17
		c-0.65-0.12-1.26-0.29-1.86-0.53c-0.59-0.24-1.15-0.55-1.67-0.94c-0.52-0.38-0.97-0.86-1.34-1.42l2.25-1.84
		c0.48,0.81,1.14,1.43,2,1.84c0.85,0.42,1.76,0.62,2.72,0.62c0.56,0,1.13-0.08,1.7-0.25c0.57-0.17,1.09-0.41,1.55-0.73
		c0.46-0.32,0.83-0.72,1.12-1.2c0.29-0.48,0.44-1.03,0.44-1.66c0-0.69-0.11-1.24-0.34-1.67c-0.23-0.43-0.58-0.8-1.06-1.11
		c-0.48-0.31-1.08-0.59-1.81-0.84c-0.73-0.25-1.58-0.54-2.56-0.87c-0.79-0.25-1.52-0.54-2.19-0.86c-0.67-0.32-1.24-0.72-1.73-1.19
		c-0.49-0.47-0.87-1.03-1.16-1.69c-0.28-0.66-0.42-1.44-0.42-2.36c0-1.06,0.21-1.99,0.62-2.78c0.42-0.79,0.98-1.45,1.69-1.98
		c0.71-0.53,1.51-0.93,2.4-1.2c0.89-0.27,1.83-0.41,2.81-0.41c1.25,0,2.39,0.19,3.42,0.58c1.03,0.39,1.95,1.06,2.76,2.01
		L74.13,463.88z"/>
	<path class="st3" d="M96.24,482.08h-2.4l-4.15-11.24h-0.06l-3.68,11.24h-2.5l-4.75-14.61h2.69l3.34,11.24h0.06l3.78-11.24h2.56
		l3.84,11.24h0.06l3.31-11.24h2.62L96.24,482.08z"/>
	<path class="st3" d="M103.51,469.34c0.75-0.77,1.64-1.34,2.67-1.7c1.03-0.36,2.08-0.55,3.14-0.55c2.16,0,3.73,0.51,4.68,1.53
		c0.96,1.02,1.44,2.57,1.44,4.65v6.28c0,0.42,0.02,0.85,0.06,1.3c0.04,0.45,0.09,0.86,0.16,1.23h-2.34
		c-0.08-0.33-0.13-0.7-0.14-1.11c-0.01-0.41-0.02-0.76-0.02-1.08h-0.06c-0.48,0.75-1.12,1.36-1.92,1.84
		c-0.8,0.48-1.76,0.72-2.89,0.72c-0.75,0-1.45-0.09-2.11-0.28c-0.66-0.19-1.23-0.46-1.72-0.83c-0.49-0.36-0.88-0.82-1.17-1.36
		c-0.29-0.54-0.44-1.17-0.44-1.87c0-1.21,0.31-2.15,0.94-2.84c0.62-0.69,1.4-1.2,2.33-1.53c0.93-0.33,1.92-0.54,3-0.62
		c1.07-0.08,2.06-0.12,2.95-0.12h0.94v-0.44c0-1.06-0.32-1.86-0.95-2.4c-0.64-0.54-1.52-0.81-2.67-0.81c-0.79,0-1.57,0.13-2.33,0.39
		c-0.76,0.26-1.43,0.66-2.01,1.2L103.51,469.34z M110.57,475.06c-1.56,0-2.8,0.22-3.72,0.66c-0.92,0.44-1.37,1.16-1.37,2.15
		c0,0.92,0.31,1.57,0.92,1.95c0.61,0.39,1.38,0.58,2.3,0.58c0.71,0,1.33-0.12,1.86-0.36c0.53-0.24,0.97-0.56,1.33-0.95
		c0.35-0.4,0.62-0.86,0.81-1.39c0.19-0.53,0.29-1.1,0.31-1.7v-0.94H110.57z"/>
	<path class="st3" d="M119.91,470.94c0-0.67-0.02-1.29-0.06-1.87c-0.04-0.58-0.06-1.11-0.06-1.59h2.31c0,0.4,0.01,0.79,0.03,1.19
		c0.02,0.4,0.03,0.8,0.03,1.22h0.06c0.17-0.35,0.4-0.7,0.7-1.03c0.3-0.33,0.66-0.63,1.08-0.89c0.42-0.26,0.88-0.47,1.4-0.62
		c0.52-0.16,1.08-0.23,1.69-0.23c0.17,0,0.33,0.01,0.5,0.03c0.17,0.02,0.33,0.06,0.5,0.12l-0.16,2.47
		c-0.42-0.12-0.85-0.19-1.31-0.19c-1.5,0-2.59,0.48-3.26,1.45c-0.68,0.97-1.01,2.29-1.01,3.98v7.12h-2.44V470.94z"/>
	<path class="st3" d="M138.89,469.53h-4.31v7.31c0,0.48,0.01,0.92,0.03,1.33c0.02,0.41,0.1,0.76,0.25,1.06
		c0.15,0.3,0.36,0.54,0.66,0.72c0.29,0.18,0.71,0.27,1.25,0.27c0.35,0,0.72-0.04,1.09-0.12c0.37-0.08,0.73-0.21,1.06-0.38l0.09,2.22
		c-0.42,0.19-0.88,0.32-1.39,0.41c-0.51,0.08-0.99,0.12-1.45,0.12c-0.87,0-1.57-0.12-2.09-0.34c-0.52-0.23-0.93-0.55-1.22-0.97
		c-0.29-0.42-0.48-0.93-0.58-1.55c-0.09-0.61-0.14-1.3-0.14-2.04v-8.02h-3.19v-2.06h3.19v-4.15h2.44v4.15h4.31V469.53z"/>
	<path class="st3" d="M141.92,458.48h2.44v11.02h0.06c0.17-0.29,0.4-0.58,0.69-0.86c0.29-0.28,0.64-0.54,1.05-0.77
		c0.41-0.23,0.86-0.42,1.36-0.56c0.5-0.15,1.03-0.22,1.59-0.22c0.96,0,1.78,0.15,2.48,0.44c0.7,0.29,1.27,0.7,1.73,1.22
		c0.46,0.52,0.8,1.15,1.01,1.89c0.22,0.74,0.33,1.55,0.33,2.42v9.02h-2.44v-8.77c0-1.23-0.27-2.2-0.81-2.9
		c-0.54-0.71-1.38-1.06-2.53-1.06c-0.79,0-1.47,0.14-2.05,0.41c-0.57,0.27-1.04,0.66-1.4,1.16c-0.36,0.5-0.64,1.09-0.81,1.78
		c-0.18,0.69-0.27,1.45-0.27,2.28v7.12h-2.44V458.48z"/>
	<path class="st3" d="M159.28,470.94c0-0.67-0.02-1.29-0.06-1.87c-0.04-0.58-0.06-1.11-0.06-1.59h2.31c0,0.4,0.01,0.79,0.03,1.19
		c0.02,0.4,0.03,0.8,0.03,1.22h0.06c0.17-0.35,0.4-0.7,0.7-1.03c0.3-0.33,0.66-0.63,1.08-0.89c0.42-0.26,0.88-0.47,1.4-0.62
		c0.52-0.16,1.08-0.23,1.69-0.23c0.79,0,1.45,0.1,1.98,0.3c0.53,0.2,0.97,0.44,1.33,0.72c0.35,0.28,0.63,0.58,0.83,0.91
		c0.2,0.32,0.36,0.61,0.48,0.86c0.54-0.88,1.17-1.56,1.87-2.04c0.71-0.49,1.62-0.73,2.75-0.73c1.04,0,1.91,0.14,2.62,0.42
		c0.71,0.28,1.28,0.69,1.72,1.22c0.44,0.53,0.75,1.18,0.94,1.94c0.19,0.76,0.28,1.61,0.28,2.54v8.87h-2.44v-8.74
		c0-0.5-0.05-0.99-0.16-1.47c-0.1-0.48-0.29-0.91-0.56-1.28c-0.27-0.38-0.64-0.68-1.09-0.91c-0.46-0.23-1.04-0.34-1.75-0.34
		c-0.52,0-1.01,0.1-1.47,0.31c-0.46,0.21-0.86,0.5-1.2,0.87c-0.34,0.38-0.61,0.83-0.81,1.36c-0.2,0.53-0.3,1.12-0.3,1.76v8.43h-2.44
		v-8.27c0-1.62-0.22-2.77-0.66-3.45c-0.44-0.68-1.16-1.01-2.15-1.01c-0.79,0-1.47,0.14-2.05,0.41c-0.57,0.27-1.04,0.66-1.4,1.16
		c-0.36,0.5-0.64,1.09-0.81,1.78c-0.18,0.69-0.27,1.45-0.27,2.28v7.12h-2.44V470.94z"/>
	<path class="st3" d="M185.04,474.78c0-1.14,0.2-2.19,0.59-3.12c0.4-0.94,0.94-1.74,1.62-2.42c0.69-0.68,1.51-1.2,2.47-1.58
		c0.96-0.38,2-0.56,3.12-0.56c1.12,0,2.16,0.19,3.12,0.56c0.96,0.37,1.78,0.9,2.47,1.58c0.69,0.68,1.23,1.48,1.62,2.42
		c0.4,0.94,0.59,1.98,0.59,3.12c0,1.15-0.2,2.19-0.59,3.12c-0.4,0.94-0.94,1.74-1.62,2.42c-0.69,0.68-1.51,1.2-2.47,1.58
		c-0.96,0.38-2,0.56-3.12,0.56c-1.12,0-2.17-0.19-3.12-0.56s-1.78-0.9-2.47-1.58c-0.69-0.68-1.23-1.48-1.62-2.42
		C185.23,476.96,185.04,475.92,185.04,474.78z M187.66,474.78c0,0.77,0.12,1.48,0.36,2.14c0.24,0.66,0.59,1.23,1.05,1.72
		c0.46,0.49,1,0.87,1.64,1.16c0.63,0.28,1.35,0.42,2.14,0.42c0.79,0,1.5-0.14,2.14-0.42c0.63-0.28,1.18-0.67,1.64-1.16
		c0.46-0.49,0.81-1.06,1.05-1.72c0.24-0.66,0.36-1.37,0.36-2.14c0-0.77-0.12-1.48-0.36-2.14c-0.24-0.66-0.59-1.23-1.05-1.72
		c-0.46-0.49-1-0.87-1.64-1.16c-0.64-0.28-1.35-0.42-2.14-0.42c-0.79,0-1.5,0.14-2.14,0.42c-0.63,0.28-1.18,0.67-1.64,1.16
		c-0.46,0.49-0.81,1.06-1.05,1.72C187.78,473.29,187.66,474.01,187.66,474.78z"/>
	<path class="st3" d="M204.43,470.94c0-0.67-0.02-1.29-0.06-1.87c-0.04-0.58-0.06-1.11-0.06-1.59h2.31c0,0.4,0.01,0.79,0.03,1.19
		c0.02,0.4,0.03,0.8,0.03,1.22h0.06c0.17-0.35,0.4-0.7,0.7-1.03c0.3-0.33,0.66-0.63,1.08-0.89c0.42-0.26,0.88-0.47,1.4-0.62
		c0.52-0.16,1.08-0.23,1.69-0.23c0.17,0,0.33,0.01,0.5,0.03c0.17,0.02,0.33,0.06,0.5,0.12l-0.16,2.47
		c-0.42-0.12-0.85-0.19-1.31-0.19c-1.5,0-2.59,0.48-3.26,1.45c-0.68,0.97-1.01,2.29-1.01,3.98v7.12h-2.44V470.94z"/>
	<path class="st3" d="M227.91,479.43c-0.87,1.12-1.83,1.91-2.87,2.36c-1.04,0.45-2.25,0.67-3.62,0.67c-1.14,0-2.18-0.2-3.09-0.61
		c-0.92-0.41-1.69-0.95-2.33-1.64c-0.64-0.69-1.12-1.5-1.47-2.44c-0.34-0.94-0.52-1.94-0.52-3c0-1.12,0.19-2.16,0.56-3.11
		c0.38-0.95,0.9-1.76,1.56-2.44c0.67-0.68,1.46-1.2,2.37-1.58c0.92-0.38,1.91-0.56,3-0.56c1.02,0,1.96,0.17,2.81,0.52
		c0.85,0.34,1.59,0.84,2.2,1.5c0.61,0.66,1.09,1.46,1.42,2.4c0.33,0.95,0.5,2.02,0.5,3.23v0.78h-11.8c0.04,0.62,0.19,1.22,0.45,1.79
		c0.26,0.57,0.6,1.07,1.01,1.5c0.42,0.43,0.91,0.76,1.47,1.01s1.18,0.38,1.84,0.38c1.06,0,1.96-0.19,2.69-0.56
		c0.73-0.38,1.38-0.93,1.97-1.65L227.91,479.43z M225.81,473.47c-0.04-1.25-0.45-2.25-1.22-3c-0.77-0.75-1.83-1.12-3.19-1.12
		c-1.35,0-2.45,0.38-3.28,1.12c-0.83,0.75-1.33,1.75-1.5,3H225.81z"/>
	<path class="st3" d="M256.82,464.54c-0.67-0.89-1.49-1.57-2.47-2.01c-0.98-0.45-2-0.67-3.06-0.67c-1.23,0-2.36,0.25-3.39,0.75
		c-1.03,0.5-1.92,1.17-2.67,2.01c-0.75,0.84-1.33,1.82-1.75,2.94c-0.42,1.11-0.62,2.27-0.62,3.48c0,1.29,0.21,2.49,0.62,3.61
		c0.42,1.11,0.99,2.08,1.73,2.9c0.74,0.82,1.62,1.47,2.65,1.95c1.03,0.48,2.17,0.72,3.42,0.72c1.35,0,2.56-0.27,3.62-0.8
		c1.06-0.53,1.99-1.3,2.78-2.29l1.97,1.66c-1,1.33-2.2,2.31-3.61,2.93c-1.4,0.62-2.99,0.94-4.76,0.94c-1.58,0-3.06-0.29-4.43-0.88
		c-1.37-0.58-2.57-1.39-3.57-2.42c-1.01-1.03-1.8-2.25-2.37-3.67c-0.57-1.42-0.86-2.97-0.86-4.65c0-1.62,0.28-3.14,0.83-4.56
		c0.55-1.42,1.33-2.64,2.33-3.68c1-1.04,2.19-1.86,3.56-2.47c1.37-0.6,2.88-0.91,4.53-0.91c1.5,0,2.94,0.27,4.32,0.81
		c1.38,0.54,2.54,1.43,3.48,2.65L256.82,464.54z"/>
	<path class="st3" d="M262.03,474.78c0-1.14,0.2-2.19,0.59-3.12s0.94-1.74,1.62-2.42c0.69-0.68,1.51-1.2,2.47-1.58
		c0.96-0.38,2-0.56,3.12-0.56c1.12,0,2.16,0.19,3.12,0.56c0.96,0.37,1.78,0.9,2.47,1.58c0.69,0.68,1.23,1.48,1.62,2.42
		c0.4,0.94,0.59,1.98,0.59,3.12c0,1.15-0.2,2.19-0.59,3.12c-0.4,0.94-0.94,1.74-1.62,2.42c-0.69,0.68-1.51,1.2-2.47,1.58
		s-2,0.56-3.12,0.56c-1.12,0-2.17-0.19-3.12-0.56s-1.78-0.9-2.47-1.58c-0.69-0.68-1.23-1.48-1.62-2.42
		C262.23,476.96,262.03,475.92,262.03,474.78z M264.66,474.78c0,0.77,0.12,1.48,0.36,2.14c0.24,0.66,0.59,1.23,1.05,1.72
		c0.46,0.49,1,0.87,1.64,1.16c0.63,0.28,1.35,0.42,2.14,0.42c0.79,0,1.5-0.14,2.14-0.42c0.63-0.28,1.18-0.67,1.64-1.16
		c0.46-0.49,0.81-1.06,1.05-1.72c0.24-0.66,0.36-1.37,0.36-2.14c0-0.77-0.12-1.48-0.36-2.14c-0.24-0.66-0.59-1.23-1.05-1.72
		c-0.46-0.49-1-0.87-1.64-1.16c-0.64-0.28-1.35-0.42-2.14-0.42c-0.79,0-1.5,0.14-2.14,0.42c-0.63,0.28-1.18,0.67-1.64,1.16
		c-0.46,0.49-0.81,1.06-1.05,1.72C264.78,473.29,264.66,474.01,264.66,474.78z"/>
	<path class="st3" d="M281.64,458.48h2.44v23.6h-2.44V458.48z"/>
	<path class="st3" d="M289.17,458.48h2.44v23.6h-2.44V458.48z"/>
	<path class="st3" d="M309.49,479.43c-0.87,1.12-1.83,1.91-2.87,2.36c-1.04,0.45-2.25,0.67-3.62,0.67c-1.14,0-2.18-0.2-3.09-0.61
		c-0.92-0.41-1.69-0.95-2.33-1.64c-0.64-0.69-1.12-1.5-1.47-2.44c-0.34-0.94-0.52-1.94-0.52-3c0-1.12,0.19-2.16,0.56-3.11
		c0.38-0.95,0.89-1.76,1.56-2.44c0.67-0.68,1.46-1.2,2.37-1.58c0.92-0.38,1.91-0.56,3-0.56c1.02,0,1.96,0.17,2.81,0.52
		c0.85,0.34,1.59,0.84,2.2,1.5c0.61,0.66,1.09,1.46,1.42,2.4c0.33,0.95,0.5,2.02,0.5,3.23v0.78h-11.8c0.04,0.62,0.19,1.22,0.45,1.79
		c0.26,0.57,0.6,1.07,1.01,1.5c0.42,0.43,0.91,0.76,1.47,1.01c0.56,0.25,1.18,0.38,1.84,0.38c1.06,0,1.96-0.19,2.69-0.56
		c0.73-0.38,1.38-0.93,1.97-1.65L309.49,479.43z M307.4,473.47c-0.04-1.25-0.45-2.25-1.22-3c-0.77-0.75-1.83-1.12-3.18-1.12
		s-2.45,0.38-3.28,1.12c-0.83,0.75-1.33,1.75-1.5,3H307.4z"/>
	<path class="st3" d="M328.38,481.43c0,2.66-0.68,4.69-2.04,6.07c-1.36,1.38-3.34,2.08-5.92,2.08c-1.44,0-2.73-0.21-3.89-0.62
		c-1.16-0.42-2.25-1.13-3.29-2.15l1.75-2c0.77,0.83,1.59,1.46,2.45,1.89c0.86,0.43,1.86,0.64,2.98,0.64c1.08,0,1.98-0.16,2.7-0.48
		c0.72-0.32,1.28-0.76,1.7-1.31c0.42-0.55,0.71-1.18,0.88-1.89c0.17-0.71,0.25-1.45,0.25-2.22v-1.87h-0.06
		c-0.58,0.94-1.34,1.62-2.28,2.06c-0.94,0.44-1.89,0.66-2.87,0.66c-1.14,0-2.2-0.19-3.15-0.56c-0.96-0.37-1.78-0.89-2.47-1.56
		c-0.69-0.67-1.22-1.46-1.59-2.37c-0.37-0.92-0.56-1.91-0.56-3c0-1.19,0.19-2.26,0.56-3.22c0.38-0.96,0.9-1.76,1.58-2.42
		c0.68-0.66,1.49-1.16,2.45-1.51c0.96-0.35,2.02-0.53,3.18-0.53c0.5,0,1,0.06,1.5,0.17c0.5,0.11,0.98,0.29,1.45,0.53
		c0.47,0.24,0.89,0.54,1.26,0.91c0.38,0.36,0.69,0.79,0.94,1.26h0.06v-2.5h2.44V481.43z M315.58,474.78c0,0.75,0.14,1.44,0.41,2.08
		c0.27,0.63,0.64,1.19,1.11,1.65c0.47,0.47,1.01,0.84,1.64,1.11c0.62,0.27,1.29,0.41,2,0.41c0.83,0,1.57-0.15,2.22-0.44
		c0.65-0.29,1.19-0.68,1.64-1.17c0.45-0.49,0.79-1.05,1.01-1.69c0.23-0.63,0.34-1.31,0.34-2.01c0-0.79-0.12-1.51-0.37-2.17
		c-0.25-0.66-0.6-1.22-1.06-1.7c-0.46-0.48-1.01-0.85-1.66-1.11c-0.65-0.26-1.35-0.39-2.12-0.39c-0.77,0-1.47,0.14-2.11,0.42
		c-0.63,0.28-1.18,0.67-1.62,1.16c-0.45,0.49-0.8,1.06-1.05,1.72C315.7,473.29,315.58,474.01,315.58,474.78z"/>
	<path class="st3" d="M345.93,479.43c-0.88,1.12-1.83,1.91-2.87,2.36c-1.04,0.45-2.25,0.67-3.62,0.67c-1.14,0-2.17-0.2-3.09-0.61
		c-0.92-0.41-1.69-0.95-2.33-1.64c-0.63-0.69-1.12-1.5-1.47-2.44c-0.34-0.94-0.51-1.94-0.51-3c0-1.12,0.19-2.16,0.56-3.11
		c0.38-0.95,0.89-1.76,1.56-2.44c0.67-0.68,1.46-1.2,2.37-1.58c0.91-0.38,1.91-0.56,3-0.56c1.02,0,1.96,0.17,2.81,0.52
		c0.85,0.34,1.59,0.84,2.2,1.5c0.61,0.66,1.09,1.46,1.42,2.4c0.33,0.95,0.5,2.02,0.5,3.23v0.78h-11.8c0.04,0.62,0.19,1.22,0.45,1.79
		c0.26,0.57,0.6,1.07,1.01,1.5c0.42,0.43,0.91,0.76,1.47,1.01c0.56,0.25,1.18,0.38,1.84,0.38c1.06,0,1.96-0.19,2.69-0.56
		c0.73-0.38,1.38-0.93,1.97-1.65L345.93,479.43z M343.84,473.47c-0.04-1.25-0.45-2.25-1.22-3c-0.77-0.75-1.83-1.12-3.18-1.12
		c-1.35,0-2.45,0.38-3.28,1.12c-0.83,0.75-1.33,1.75-1.5,3H343.84z"/>
	<path class="st3" d="M359.35,459.98h2.62v19.67h10.12v2.44h-12.74V459.98z"/>
	<path class="st3" d="M374.18,461.76c0-0.48,0.17-0.89,0.52-1.25c0.34-0.35,0.76-0.53,1.26-0.53c0.5,0,0.92,0.18,1.26,0.53
		c0.34,0.35,0.51,0.77,0.51,1.25c0,0.52-0.17,0.95-0.5,1.28c-0.33,0.33-0.76,0.5-1.28,0.5c-0.52,0-0.95-0.17-1.28-0.5
		C374.35,462.71,374.18,462.28,374.18,461.76z M374.75,467.47h2.44v14.61h-2.44V467.47z"/>
	<path class="st3" d="M381.9,458.48h2.44v11.12h0.06c0.67-0.79,1.44-1.41,2.33-1.84c0.88-0.44,1.86-0.66,2.92-0.66
		c1.14,0,2.19,0.19,3.14,0.58c0.95,0.38,1.75,0.92,2.42,1.61c0.67,0.69,1.19,1.5,1.56,2.44s0.56,1.96,0.56,3.06
		c0,1.1-0.19,2.12-0.56,3.06c-0.38,0.94-0.89,1.75-1.55,2.44c-0.66,0.69-1.43,1.22-2.33,1.61c-0.89,0.38-1.85,0.58-2.87,0.58
		c-1.31,0-2.46-0.29-3.45-0.86c-0.99-0.57-1.71-1.27-2.17-2.11h-0.06v2.59h-2.44V458.48z M384.33,474.78c0,0.77,0.12,1.48,0.36,2.14
		c0.24,0.66,0.59,1.23,1.05,1.72c0.46,0.49,1,0.87,1.64,1.16c0.63,0.28,1.35,0.42,2.14,0.42c0.79,0,1.5-0.14,2.14-0.42
		c0.63-0.28,1.18-0.67,1.64-1.16c0.46-0.49,0.81-1.06,1.05-1.72c0.24-0.66,0.36-1.37,0.36-2.14c0-0.77-0.12-1.48-0.36-2.14
		c-0.24-0.66-0.59-1.23-1.05-1.72c-0.46-0.49-1-0.87-1.64-1.16c-0.64-0.28-1.35-0.42-2.14-0.42c-0.79,0-1.5,0.14-2.14,0.42
		c-0.63,0.28-1.18,0.67-1.64,1.16c-0.46,0.49-0.81,1.06-1.05,1.72C384.45,473.29,384.33,474.01,384.33,474.78z"/>
	<path class="st3" d="M401.1,470.94c0-0.67-0.02-1.29-0.06-1.87c-0.04-0.58-0.06-1.11-0.06-1.59h2.31c0,0.4,0.01,0.79,0.03,1.19
		c0.02,0.4,0.03,0.8,0.03,1.22h0.06c0.17-0.35,0.4-0.7,0.7-1.03c0.3-0.33,0.66-0.63,1.08-0.89c0.42-0.26,0.88-0.47,1.41-0.62
		c0.52-0.16,1.08-0.23,1.69-0.23c0.17,0,0.33,0.01,0.5,0.03c0.17,0.02,0.33,0.06,0.5,0.12l-0.16,2.47
		c-0.42-0.12-0.85-0.19-1.31-0.19c-1.5,0-2.59,0.48-3.26,1.45c-0.68,0.97-1.01,2.29-1.01,3.98v7.12h-2.44V470.94z"/>
	<path class="st3" d="M411.9,469.34c0.75-0.77,1.64-1.34,2.67-1.7c1.03-0.36,2.08-0.55,3.14-0.55c2.16,0,3.73,0.51,4.68,1.53
		c0.96,1.02,1.44,2.57,1.44,4.65v6.28c0,0.42,0.02,0.85,0.06,1.3c0.04,0.45,0.09,0.86,0.16,1.23h-2.34
		c-0.08-0.33-0.13-0.7-0.14-1.11c-0.01-0.41-0.02-0.76-0.02-1.08h-0.06c-0.48,0.75-1.12,1.36-1.92,1.84
		c-0.8,0.48-1.76,0.72-2.89,0.72c-0.75,0-1.45-0.09-2.11-0.28c-0.66-0.19-1.23-0.46-1.72-0.83c-0.49-0.36-0.88-0.82-1.17-1.36
		c-0.29-0.54-0.44-1.17-0.44-1.87c0-1.21,0.31-2.15,0.94-2.84c0.62-0.69,1.4-1.2,2.33-1.53c0.93-0.33,1.92-0.54,3-0.62
		c1.07-0.08,2.06-0.12,2.95-0.12h0.94v-0.44c0-1.06-0.32-1.86-0.95-2.4c-0.64-0.54-1.53-0.81-2.67-0.81c-0.79,0-1.57,0.13-2.33,0.39
		c-0.76,0.26-1.43,0.66-2.01,1.2L411.9,469.34z M418.96,475.06c-1.56,0-2.8,0.22-3.72,0.66c-0.92,0.44-1.37,1.16-1.37,2.15
		c0,0.92,0.31,1.57,0.92,1.95c0.61,0.39,1.38,0.58,2.29,0.58c0.71,0,1.33-0.12,1.86-0.36c0.53-0.24,0.97-0.56,1.33-0.95
		c0.35-0.4,0.62-0.86,0.81-1.39c0.19-0.53,0.29-1.1,0.31-1.7v-0.94H418.96z"/>
	<path class="st3" d="M428.29,470.94c0-0.67-0.02-1.29-0.06-1.87c-0.04-0.58-0.06-1.11-0.06-1.59h2.31c0,0.4,0.01,0.79,0.03,1.19
		c0.02,0.4,0.03,0.8,0.03,1.22h0.06c0.17-0.35,0.4-0.7,0.7-1.03c0.3-0.33,0.66-0.63,1.08-0.89c0.42-0.26,0.88-0.47,1.41-0.62
		c0.52-0.16,1.08-0.23,1.69-0.23c0.17,0,0.33,0.01,0.5,0.03c0.17,0.02,0.33,0.06,0.5,0.12l-0.16,2.47
		c-0.42-0.12-0.85-0.19-1.31-0.19c-1.5,0-2.59,0.48-3.26,1.45c-0.68,0.97-1.01,2.29-1.01,3.98v7.12h-2.44V470.94z"/>
	<path class="st3" d="M438.94,461.76c0-0.48,0.17-0.89,0.52-1.25c0.34-0.35,0.76-0.53,1.26-0.53c0.5,0,0.92,0.18,1.26,0.53
		c0.34,0.35,0.51,0.77,0.51,1.25c0,0.52-0.17,0.95-0.5,1.28c-0.33,0.33-0.76,0.5-1.28,0.5c-0.52,0-0.95-0.17-1.28-0.5
		C439.11,462.71,438.94,462.28,438.94,461.76z M439.5,467.47h2.44v14.61h-2.44V467.47z"/>
	<path class="st3" d="M459.83,479.43c-0.88,1.12-1.83,1.91-2.87,2.36c-1.04,0.45-2.25,0.67-3.62,0.67c-1.14,0-2.17-0.2-3.09-0.61
		c-0.92-0.41-1.69-0.95-2.33-1.64c-0.63-0.69-1.12-1.5-1.47-2.44c-0.34-0.94-0.51-1.94-0.51-3c0-1.12,0.19-2.16,0.56-3.11
		c0.38-0.95,0.89-1.76,1.56-2.44c0.67-0.68,1.46-1.2,2.37-1.58c0.92-0.38,1.92-0.56,3-0.56c1.02,0,1.96,0.17,2.81,0.52
		c0.85,0.34,1.59,0.84,2.2,1.5c0.61,0.66,1.09,1.46,1.42,2.4c0.33,0.95,0.5,2.02,0.5,3.23v0.78h-11.8c0.04,0.62,0.19,1.22,0.45,1.79
		c0.26,0.57,0.6,1.07,1.01,1.5c0.42,0.43,0.91,0.76,1.47,1.01c0.56,0.25,1.18,0.38,1.84,0.38c1.06,0,1.96-0.19,2.69-0.56
		c0.73-0.38,1.38-0.93,1.97-1.65L459.83,479.43z M457.74,473.47c-0.04-1.25-0.45-2.25-1.22-3c-0.77-0.75-1.83-1.12-3.18-1.12
		c-1.35,0-2.45,0.38-3.28,1.12c-0.83,0.75-1.33,1.75-1.5,3H457.74z"/>
	<path class="st3" d="M464.45,478.24c0.48,0.6,1,1.08,1.58,1.44c0.57,0.35,1.3,0.53,2.17,0.53c0.38,0,0.75-0.04,1.14-0.12
		c0.39-0.08,0.73-0.22,1.05-0.41c0.31-0.19,0.56-0.42,0.75-0.7c0.19-0.28,0.28-0.62,0.28-1.01c0-0.4-0.09-0.72-0.27-0.97
		c-0.18-0.25-0.41-0.46-0.7-0.64c-0.29-0.18-0.62-0.32-1-0.42c-0.37-0.1-0.76-0.2-1.16-0.28c-0.69-0.15-1.34-0.31-1.97-0.5
		c-0.62-0.19-1.17-0.43-1.64-0.73c-0.47-0.3-0.84-0.69-1.12-1.17c-0.28-0.48-0.42-1.09-0.42-1.84c0-0.71,0.16-1.33,0.47-1.87
		c0.31-0.54,0.73-0.99,1.25-1.34c0.52-0.35,1.1-0.62,1.75-0.81c0.64-0.19,1.31-0.28,2-0.28c1.04,0,2,0.21,2.89,0.62
		c0.88,0.42,1.58,1.09,2.08,2.03l-2.03,1.34c-0.31-0.52-0.72-0.94-1.23-1.26c-0.51-0.32-1.13-0.48-1.86-0.48
		c-0.33,0-0.67,0.04-1.01,0.12c-0.34,0.08-0.65,0.21-0.92,0.38c-0.27,0.17-0.5,0.38-0.67,0.64c-0.18,0.26-0.26,0.56-0.26,0.89
		c0,0.31,0.1,0.58,0.3,0.8c0.2,0.22,0.47,0.41,0.81,0.58c0.34,0.17,0.74,0.31,1.19,0.44c0.45,0.12,0.91,0.23,1.39,0.31
		c0.65,0.12,1.26,0.29,1.84,0.48c0.58,0.2,1.09,0.46,1.53,0.8c0.44,0.33,0.78,0.75,1.03,1.25c0.25,0.5,0.37,1.11,0.37,1.84
		c0,0.83-0.17,1.54-0.5,2.12c-0.33,0.58-0.78,1.06-1.33,1.42c-0.55,0.36-1.18,0.63-1.87,0.8c-0.7,0.17-1.41,0.25-2.14,0.25
		c-1.25,0-2.33-0.19-3.23-0.58c-0.91-0.38-1.72-1.1-2.45-2.14L464.45,478.24z"/>
</g>
<path class="st4" d="M399.49,154.27c1.79,0.86,3.68,1.34,5.31,1.34c0.63,0,1.21-0.08,1.76-0.22l-1.1-1.46h-6.65L399.49,154.27z"/>
<path class="st2" d="M494.77,416.12c-0.22-3.59,0.2-8.43,0.65-13.56c0.28-3.24,0.58-6.57,0.72-9.79c0.12-2.67,0.16-7.07,0.21-12.17
	c0.1-10.61,0.23-23.82,1.13-27.34c1.33-5.24,1.33-34.28-0.01-38.83c-0.34-1.13-0.81-2.49-1.35-4.02c-1.5-4.24-3.37-9.52-3.82-14.78
	c-0.6-7.08-1.09-12.17-2.37-18.35c-1.23-5.9-4.43-19.63-4.47-19.76l-0.19-0.82l-0.83,0.08c-0.16,0.02-3.89,0.44-6.25,2.53v26.34
	h-9.83v-30.22h4.23c-0.96-1.15-2.58-2.4-4.83-4.04c-2.61-1.89-6.18-4.48-6.23-6.08c-0.05-1.69,0.34-2.62,0.67-3.43
	c0.39-0.93,0.8-1.89,0.1-3.29c-0.25-0.51-0.98-1.32-1.99-2.25h-66.9l0.02,193.52h-0.24l-0.1,20.69h97.84
	C492.77,437.71,495.03,420.24,494.77,416.12z M470.49,322.07h9.21v26.65h-9.21V322.07z M445.74,255.43h9.83v30.22h-9.83V255.43z
	 M455.57,322.07v26.65h-9.2v-26.65H455.57z M421.78,255.43h9.84v30.22h-9.84V255.43z M424.01,322.07h9.2v26.65h-9.2V322.07z
	 M478.47,378.59v70.61h-47.44V378.6l-4.77-15.31h56.65L478.47,378.59z"/>
<path class="st5" d="M459.22,235.39c-3.84-3.26-10.29-7.43-14.11-7.62c-2.65-0.13-6.95-4.07-10.1-6.95
	c-3.11-2.85-4.79-4.34-6.07-4.34c-1.16,0-2.43,0.12-3.07,1.01c-0.6,0.83-0.35,1.9-0.08,2.73c0.4,1.2,1.73,2.03,3.14,2.91
	c0.8,0.49,2.28,1.41,2.28,1.87c0,1-0.15,5.97-3.04,6.39c-1.52,0.19-3.38-0.26-5.44-0.76c-2.39-0.58-5.14-1.25-8.12-1.12
	c-4.02,0.19-6.65,1.76-8.4,2.8c-0.65,0.39-1.22,0.74-1.57,0.82c-0.01,0-0.01,0-0.01,0c0.04-0.3,0.19-0.82,0.5-1.73
	c0.31-0.87,1.72-2.44,2.97-3.82c1.5-1.67,2.93-3.26,3.36-4.49c0.1-0.29,0.36-1.04-0.07-1.64c-0.39-0.57-1.08-0.57-1.3-0.57
	c-0.14,0-0.3,0.01-0.48,0.02c-0.28,0.02-0.6,0.02-0.93-0.01l-14.62,14.5H459.22z"/>
<path class="st5" d="M525.41,253.09c0.71-1.51,1.37-2.94,0.2-4.1c-1.28-1.28-2.72-2.73-2.97-5.23c-0.21-1.97-1.08-2.88-2.77-2.88
	c-0.45,0-0.96,0.06-1.55,0.12c-0.46,0.06-0.98,0.13-1.73,0.19c-0.65,0.18-1.85,0.96-2.18,2.8c-0.24,1.38,0.46,2.41,1.15,3.41
	c0.46,0.67,0.95,1.37,1.25,2.28c0.15,0.44,0.21,0.71,0.24,0.88c-0.25,0.02-0.65,0.02-1.02,0.03l-0.91,0.01
	c-1.87,0-3.01-1.42-3.77-2.36l-0.16-0.19c-0.19-0.25-0.35-0.51-0.5-0.77c-0.41-0.69-0.91-1.55-1.97-1.55
	c-0.27,0-0.55,0.07-0.83,0.19c-0.91,0.4-2.46,1.78-2.89,3.46c-0.25,1.01-0.07,1.96,0.54,2.76c0.69,0.9,1.43,1.34,2.28,1.34
	c0.5,0,0.92-0.16,1.29-0.28c0.27-0.1,0.51-0.19,0.74-0.19c0.01,0,0.01,0,0.01,0c0.04,0,0.08,0.01,0.11,0.01
	c0.03,0.19,0.05,0.46,0.08,0.74c0.04,0.46,0.1,1.06,0.21,1.85c0.36,2.62,0.23,4.45-4.52,5.97c-1.03,0.34-2,0.5-2.85,0.5
	c-1.65,0-2.39-0.62-2.39-0.62l-0.3-0.34h-1.06l-0.46,1.21l0.46,0.45c0.03,0.02,0.07,0.06,0.12,0.1l-0.01,0.03
	c0.3,0.38,0.3,0.38,1.45,2.66c1,1.99,1.73,10.11,2.04,15.71c1.35,0.5,2.49,1.64,2.66,3.44c0.42,4.45,1.04,8.81,1.73,13.15
	c1.05,2,2.21,3.39,3.43,3.39l0.24-0.02c0.06-0.04,0.1-0.1,0.16-0.13c0.36-0.25,0.74-0.42,1.12-0.56c2.67-2.25,5.88-9.62,7.85-14.89
	h-5.85v-30.22h9.83v2.49C524.13,255.88,524.84,254.34,525.41,253.09z"/>
<path class="st2" d="M272.59,243.1l-210.53,0.1l-0.08,0.14v201.92V448h210.45v-18.16h120.02V242.66H273.46v187.06h-0.95
	 M238.42,256.75h8.81v32.6h-8.81V256.75z M191.62,256.75h8.81v32.6h-8.81V256.75z M143.23,257.07h8.8v32.6h-8.8V257.07z
	 M117.68,257.07h8.81v32.6h-8.81V257.07z M93.25,256.75h8.8v32.6h-8.8V256.75z M113.66,381.56v65.96H90.97v-66.29l-4.59-14.9h31.86
	l-4.57,15.23H113.66z M132.56,417.5h-15.23v-28.8h15.23V417.5z M163.28,388.7v28.8h-3.61v30.02h-22.68v-66.29l-4.59-14.9h31.87
	l-4.57,15.23h-0.02v7.14H163.28z M206.63,381.56v65.96h-22.69v-66.29l-4.59-14.9h31.86l-4.57,15.23H206.63z M225.21,417.5h-15.23
	v-28.8h15.23V417.5z M225.21,289.34h-8.81v-32.6h8.81V289.34z M253.28,381.56h-0.01v65.96h-22.69v-66.29l-4.59-14.9h31.86
	L253.28,381.56z M330.04,421.6h-14.6v-36.17h14.6V421.6z M315.11,356.57V320.4h14.6v36.17H315.11z M352.65,421.6h-14.6v-36.17h14.6
	V421.6z M337.71,356.57V320.4h14.6v36.17H337.71z M361.77,255.43h15.71v15.71h-15.71V255.43z M338.45,255.43h15.71v15.71h-15.71
	V255.43z M314.41,255.43h15.71v15.71h-15.71V255.43z M290.62,255.43h15.71v15.71h-15.71V255.43z M278.84,278.28h110.42v36.65h-22.8
	v112.33h-5.81V314.93h-56.33v112.33h-7.15V314.93h-18.33V278.28z"/>
<path class="st2" d="M586.5,269.08c-1.22,0.16-9.61,1.18-17.88,1.71v14.86h-9.83v-14.57c-4.78-0.1-5.93-0.71-6.17-0.91
	c-0.75-0.63-1.43-0.94-2.09-0.94c-1.12,0-1.77,0.87-2.25,1.51c-0.37,0.5-0.63,0.83-0.89,0.83c-0.11,0-0.36-0.04-0.81-0.35
	c-0.11-0.07-0.22-0.16-0.34-0.23v14.66h-9.83v-16.88c-2.21,7.9-8.11,29.14-9.41,35.05l-1.09,4.92c-0.77,3.44-1.67,7.43-2.45,11.11
	h1.93v26.66h-3.79c-0.07,0.68-0.13,1.36-0.2,2.05c0.22,6.3,0.79,12.32,2.01,14.75h46.04l-4.44,15.3v70.61h-41.78
	c-0.02,0.45-0.03,0.89-0.04,1.34h65.36V268.37C587.98,268.71,587.35,268.98,586.5,269.08z M547.6,346.5h-9.21v-26.66h9.21V346.5z
	 M570.12,346.5h-9.21v-26.66h9.21V346.5z"/>
<path class="st2" d="M393.23,234.89l14.45-14.34c-0.2-0.13-0.4-0.28-0.6-0.51c-0.32-0.38-0.62-0.71-0.88-1
	c-1.27-1.43-1.27-1.43-0.53-2.17c0.59-0.59,1.49-0.64,2.38-0.68c1-0.05,2.26-0.12,2.79-1.26c0.44-0.97,0.39-2.33-0.16-3.55
	c-0.54-1.22-1.78-2.86-4.66-3.77c-1.53-0.48-3.67-0.83-5.93-1.21c-4.05-0.68-9.1-1.51-10.94-3.28l-0.25-0.25
	c-1.32-1.27-2.58-2.48-2.56-2.9c0-0.02,0.02-0.2,0.55-0.65l0.5-0.42c4.23-3.55,7.96-7.24,6.56-10.03c-0.68-1.36-2.66-1.64-5.61-1.64
	c-0.68,0-1.39,0.01-2.12,0.03c-0.75,0.02-1.52,0.03-2.28,0.03c-2.81,0-6.11-0.2-6.75-1.75c-0.49-1.19-1.06-2.17-1.57-3.05
	c-1.45-2.5-2.19-3.76,0.11-6.77c0.88-1.15,1.87-1.7,3.04-1.7c1.23,0,2.46,0.59,3.46,1.06c1.15,0.54,1.85,0.83,2.62,0.48
	c0.18,0,0.46,0.08,0.74,0.16c0.39,0.11,0.82,0.23,1.26,0.23c0.54,0,1.5-0.19,1.93-1.5c0.33-1-0.18-2.68-1.19-5.82
	c-0.8-2.48-2.3-7.12-1.5-7.96c1.58-1.67,3.46-4.43,4.66-6.7H215.39l-19.28,34.71l76.8,53.06h119.53v-5.85"/>
<path class="st6" d="M16.41,187.79"/>
<polygon class="st2" points="194.97,189.01 89.07,189.01 61.02,242.35 272.16,242.35 "/>
<line class="st7" x1="392.29" y1="429.39" x2="394.03" y2="429.39"/>
<line class="st7" x1="272.11" y1="429.39" x2="273.86" y2="429.39"/>
<g>
	<path class="st8" d="M517.15,499.78c-3.54,0-8.45-0.24-11.79-1.37c-2.53-0.86-6.85-1.31-12.49-1.31c-8.55,0-16.82,1.01-17.87,1.54
		c-0.25,0.12-0.51,0.06-0.64-0.15c-0.42-0.63,0.75-3.63,5.29-14.37c3.44-8.14,7.34-17.37,7.96-20.87
		c1.27-7.13,6.19-41.17,5.82-47.06c-0.22-3.68,0.2-8.54,0.65-13.71c0.28-3.23,0.57-6.57,0.71-9.78c0.12-2.66,0.16-7.07,0.21-12.19
		c0.1-10.66,0.23-23.92,1.17-27.58c1.4-5.47,1.14-34.29,0-38.13c-0.32-1.11-0.79-2.42-1.33-3.94c-1.44-4.08-3.43-9.68-3.89-15.12
		c-0.59-7.04-1.08-12.09-2.35-18.18c-1.12-5.38-3.88-17.28-4.38-19.4c-0.95,0.14-3.77,0.7-5.41,2.34c-0.89,0.89-1.26,1.98-1.59,2.95
		c-0.41,1.2-0.8,2.32-2.16,2.25c-2.18-0.14-2.51-4.32-2.78-7.68l-0.05-0.61c-0.1-1.21-2.72-3.11-5.26-4.95
		c-3.29-2.39-6.71-4.86-6.77-7.1c-0.07-1.98,0.42-3.13,0.77-3.99c0.36-0.86,0.56-1.33,0.13-2.19c-1-1.99-11.23-9.85-16.06-10.09
		c-3.12-0.15-7.45-4.11-10.92-7.3c-2.14-1.96-4.36-3.99-5.18-3.99c-1.12,0-1.77,0.15-1.99,0.45c-0.19,0.27-0.16,0.76,0.1,1.54
		c0.25,0.75,1.44,1.5,2.58,2.2c1.5,0.94,2.9,1.81,2.9,3c0,1.67-0.3,7.14-4.17,7.69c-1.64,0.24-3.75-0.24-5.94-0.77
		c-2.31-0.56-4.95-1.21-7.74-1.08c-3.69,0.16-6.05,1.59-7.78,2.62c-0.78,0.47-1.41,0.84-1.96,0.97c-0.73,0.16-1.19,0.05-1.46-0.33
		c-0.39-0.56-0.16-1.53,0.4-3.14c0.39-1.12,1.78-2.66,3.24-4.28c1.34-1.49,2.74-3.05,3.08-4.03c0.1-0.28,0.1-0.39,0.1-0.44
		c-0.01,0.01-0.08-0.01-0.21-0.01c-0.12,0-0.25,0.01-0.4,0.02c-0.19,0.01-0.4,0.03-0.63,0.03c-0.8,0-1.98-0.14-3-1.35
		c-0.31-0.36-0.6-0.69-0.86-0.97c-1.45-1.63-2.11-2.37-0.49-3.99c0.94-0.94,2.22-1.01,3.24-1.06c0.91-0.05,1.48-0.1,1.66-0.5
		c0.24-0.51,0.28-1.47-0.16-2.47c-0.43-0.97-1.45-2.29-3.85-3.04c-1.45-0.46-3.54-0.8-5.75-1.18c-4.45-0.74-9.5-1.58-11.64-3.63
		l-0.25-0.24c-2.01-1.92-3.01-2.89-2.98-3.9c0.02-0.69,0.55-1.23,1.01-1.63l0.5-0.42c2.02-1.7,7.36-6.19,6.23-8.43
		c-0.4-0.8-2.56-0.91-4.42-0.91c-0.67,0-1.37,0.02-2.1,0.03c-4.3,0.09-9.13,0.21-10.27-2.54c-0.45-1.1-1.01-2.05-1.49-2.88
		c-1.47-2.53-2.62-4.53,0.2-8.24c1.13-1.47,2.51-2.22,4.1-2.22c1.52,0,2.98,0.69,4.02,1.19c0.56,0.27,1.09,0.52,1.35,0.52
		c0.55-0.27,1.18-0.13,1.8,0.04c0.33,0.1,0.64,0.19,0.9,0.19c0.23,0,0.5-0.05,0.68-0.6c0.22-0.63-0.5-2.86-1.2-5.01
		c-1.25-3.86-2.54-7.85-1.2-9.27c2.01-2.13,4.68-6.31,5.38-8.42c0.17-0.51,0.62-1.12,1.82-1.12c1.81,0,4.7,1.41,7.03,2.54l0.72,0.35
		c1.62,0.78,3.3,1.21,4.74,1.21c1.26,0,2.94-0.34,3.83-1.93c0.37-0.65,0.41-1.26,0.13-1.9c-0.72-1.66-3.41-2.98-5.6-3.51
		c-2.21-0.53-3.58-1.46-4.07-2.77c-0.51-1.39-0.01-3.16,1.5-5.25l0.61-0.85c3.09-4.34,7.33-10.29,12.73-10.29
		c0.73,0,1.47,0.1,2.21,0.33c1.11,0.33,2.02,0.63,2.77,0.86c1.56,0.5,2.51,0.79,2.96,0.79c0.25,0,0.3,0,0.46-0.94l0.03-0.16
		c0.13-0.75-0.62-2.21-1.35-3.61c-1.22-2.33-2.46-4.74-1.31-6.23c0.22-0.27,0.41-0.51,0.58-0.74c0.27-0.33,0.55-0.68,0.7-0.91
		c-0.34,0.03-0.88,0.14-1.4,0.25c-0.81,0.18-1.87,0.57-3.01,0.99c-1.94,0.71-4.14,1.53-5.84,1.53c-0.85,0-1.52-0.2-2.01-0.6
		c-1.74-1.44-1.85-1.64-1.71-3.16c0.03-0.3,0.07-0.66,0.09-1.12c0.08-1.6,1.91-1.84,3.84-2.1c1.58-0.2,3.38-0.45,4.17-1.46
		c0.22-0.27,0.47-0.66,0.39-0.9c-0.17-0.48-1.58-0.81-3.2-1.18c-1.18-0.28-2.5-0.58-3.96-1.06c-4.95-1.61-5.27-1.93-4.84-4.87
		c0.05-0.39,0.13-0.8,0.21-1.2c0.42-2.21,0.78-4.1-2.06-4.96c-0.85-0.25-1.32-0.68-1.38-1.24c-0.14-1.09,1.23-2.44,4.31-4.27
		c0.1-0.06,0.17-0.1,0.2-0.12c0.21-0.14,0.54-0.12,1.09-0.1c0.22,0.02,0.48,0.02,0.77,0.02c1.15,0,2.75-0.13,3.35-1.27
		c0.32-0.59,0.51-1.44,0.71-2.35c0.42-1.9,0.91-4.05,2.81-4.05c0.27,0,0.57,0.04,0.88,0.14c1.35,0.42,3.15,1.71,5.05,3.07
		c2.77,1.98,5.91,4.25,8.09,4.11c2.1-0.14,3.43-0.58,4.06-1.36c0.44-0.54,0.58-1.29,0.44-2.31c-0.25-1.68-0.25-1.68-1.16-1.83
		c-0.4-0.06-0.94-0.15-1.67-0.34c-2.66-0.69-5.56-1.58-6.37-3.25c-0.29-0.61-0.27-1.28,0.04-1.97c0.75-1.64,1.33-1.93,2-2.26
		c0.47-0.23,1-0.5,1.78-1.42c0.97-1.17,0.86-1.85,0.71-2.8c-0.11-0.72-0.25-1.53,0.09-2.65c0.51-1.7,1.72-1.91,2.71-1.91
		c0.62,0,1.31,0.1,2.04,0.2c0.54,0.08,1.12,0.16,1.72,0.21c2.1,0.17,3.5-1.76,4.63-3.31c0.36-0.48,0.68-0.93,1.01-1.29
		c0.26-0.29,0.6-0.43,1.03-0.43c1.04,0,2.42,0.86,4.17,1.96c1.57,0.98,3.35,2.1,5.13,2.71c1.67,0.57,4.27,1.26,7.05,1.26
		c3.8,0,6.85-1.27,9.05-3.76c4.86-5.5,7.49-8.9,5.14-15c-0.52-1.36-1.18-2.78-1.81-4.15c-1.74-3.8-3.4-7.4-2.36-9.77
		c0.42-0.97,1.27-1.66,2.54-2.07c1.75-0.57,3.09-0.84,4.13-0.84c1.07,0,1.63,0.3,2.08,0.54c0.31,0.16,0.52,0.28,0.85,0.28
		c1.47,0,11.03-5.8,11.69-7.46c0.21-0.54,0.63-0.84,1.18-0.84c0.85,0,1.78,0.71,2.35,1.38c0.68,0.79,1,1.61,0.9,2.26
		c-0.05,0.36,0.01,0.65,0.22,0.89c0.56,0.66,2.16,0.91,4.33,0.67c3.09-0.34,3.78-1.77,4.27-5.88c0.51-4.38,2.11-5.28,5.29-5.54
		c2.95-0.25,7.36-0.43,7.4-0.43c0.19,0.01,3.72,0.36,5.35,2.96c0.2,0.33,0.44,0.8,0.72,1.35c0.92,1.78,2.31,4.46,4.14,5.74
		c0.45,0.32,1.13,0.48,2.08,0.48c1.79,0,4.17-0.55,6.68-1.12c2.09-0.48,4.25-0.98,6.12-1.15c0.42-0.04,0.82-0.06,1.2-0.06
		c5.24,0,6.3,3.9,6.64,6.84c0.22,1.81-0.34,2.85-0.71,3.55c-0.16,0.3-0.31,0.56-0.25,0.69c0.16,0.39,1.82,0.95,2.45,1.16
		c10.41,3.47,17.49,5.23,21.04,5.23c0.77,0,1.38-0.09,1.77-0.26c1.41-0.6,1.32-0.89,1.17-1.35c-0.26-0.81-0.34-1.65,1.51-2.84
		c1.99-1.28,5.89-2.11,9.94-2.11c3.35,0,6.39,0.56,8.53,1.58c0.67,0.32,1.37,0.64,2.06,0.96c4.77,2.18,9.71,4.42,8.05,8.22
		c-0.71,1.62-1.75,2.88-2.6,3.9c-0.58,0.7-1.24,1.5-1.15,1.78c0.02,0.05,0.13,0.23,0.85,0.38c0.73,0.15,1.6,0.23,2.51,0.23
		c1.47,0,6.46-0.25,9.19-3.44c1.48-1.73,3.49-2.68,5.65-2.68c1.72,0,3.38,0.61,4.56,1.65c0.85,0.75,1.24,1.7,1.15,2.74
		c-0.14,1.54-1.4,3.23-3.18,4.3c-0.63,0.39-1.41,0.72-2.18,1.06c-1.19,0.52-2.68,1.18-2.7,1.72c-0.01,0.13,0.1,0.48,1.14,1.04
		c1.23,0.65,2.53,1.11,3.67,1.51c1.7,0.61,2.83,1,2.94,1.78c0.08,0.57-0.45,1.02-0.86,1.31c-1.2,0.83-3.7,1.02-6.36,1.2
		c-2.91,0.22-6.21,0.45-6.93,1.66c-0.36,0.59-0.72,1.09-1.04,1.53c-0.55,0.76-0.99,1.37-0.89,1.78c0.07,0.28,0.41,0.57,1.03,0.88
		c1.28,0.64,2.55,0.93,4.13,0.93c1.39,0,3.11-0.22,5.56-0.71c2.32-0.46,4.17,0.58,5.12,2.85c0.64,1.54,0.72,3.44,0.18,3.98
		c-0.06,0.07-0.2,0.26-0.34,0.47c-1.37,1.99-5.51,8.08-17.54,8.08c-4.39,0-4.61,0.59-4.62,0.62c-0.06,0.67,4.08,2.32,6.12,2.97
		c0.06-0.09,0.19-0.16,0.42-0.16c0.7,0,3.99,0.8,4.94,2.5c0.37,0.66,0.34,1.38-0.09,2.09c-0.76,1.23-0.93,2.3-0.5,3.08
		c0.53,0.95,1.96,1.44,3.88,1.32c1.17-0.08,2.01-0.11,2.72-0.11c1.87,0,2.79,0.26,3.06,0.88c0.3,0.65-0.31,1.35-0.52,1.58
		c-0.81,0.93-3.03,1.96-5.38,3.06c-1.79,0.83-4.78,2.22-4.8,2.76c0.25,0.28,2.28,0.75,8.31,0.75c6.11,0,14.38-0.53,19.13-1.71
		c1.46-0.36,2.95-0.55,4.44-0.55c5.99,0,10.67,3.04,10.9,5.09c0.14,1.26-0.74,1.94-1.76,2.74c-1.07,0.83-2.4,1.86-3.09,3.95
		c-0.78,2.38,1.73,4.31,3.76,5.87c1.31,1.01,2.34,1.81,2.34,2.63c0,1.3-1.79,2.02-3.87,2.84c-1.24,0.5-2.54,1.02-3.49,1.68
		c-0.25,0.17-0.5,0.32-0.77,0.43c2.27,1.18,4.43,4.56,4.97,7.92c0.56,3.47-0.58,6.5-3.18,8.51c-4.48,3.44-8.22,4.17-10.57,4.17
		c-2.07,0-3.89-0.55-5.26-1.6c-1.75-1.35-4.66-2.37-6.77-2.37c-1,0-1.68,0.24-1.86,0.65c0,0-0.03,0.11,0.15,0.41
		c1.5,2.49,11.91,9.35,18.17,10.24c6.79,0.97,19.77,7.42,21.37,10.62c0.44,0.88,1.02,2.66,0.02,4.75
		c-1.12,2.33-4.51,5.55-14.41,7.69c-4.76,1.03-8.87,1.64-12.17,2.12c-5.01,0.74-8.31,1.22-9.02,2.49c-0.22,0.39-0.18,0.91,0.12,1.57
		c0.77,1.73,2.25,2.56,4.53,2.56c2.95,0,7.14-1.38,12.84-4.22c2.06-1.03,3.77-1.56,5.06-1.56c2.34,0,2.78,1.65,2.85,2.45
		c0.1,0.08,0.19,0.22,0.26,0.39c0.45,1.08,1.11,6.19-4.02,11.46c-0.78,0.8-1.12,1.44-0.97,1.8c0.38,0.89,3.82,0.89,4.94,0.89
		c0.91,0,1.88-0.02,2.87-0.04c1.02-0.03,2.06-0.04,3.06-0.04c3.67,0,7.1,0.27,7.5,2.28c0.66,3.32,1.17,11.54-8.49,16.22
		c-6.59,3.19-9.85,7.32-13.32,11.69c-0.91,1.14-1.84,2.33-2.83,3.48c-1.69,1.96-3.34,2.9-5.05,2.9c-2.82,0-5.32-2.66-7.62-5.52
		c-2.3-2.87-5.44-6.8-8.22-6.8c-0.98,0-1.88,0.46-2.75,1.41c-1.12,1.24-1.61,2.23-1.41,2.89c0.21,0.7,1.22,0.96,1.7,1.08
		c0.16,0.04,0.26,0.07,0.35,0.11c0.03,0.01,0.13,0.04,0.27,0.09c7.33,2.29,8.76,5.76,8.69,8.25l-0.03,0.93
		c-0.14,5.29-0.47,6.42-10.06,10.69c-0.05,0.02-0.07,0.04-0.07,0.04c-0.02,0.13,0.3,0.63,0.51,0.96c0.51,0.77,1.21,1.83,1.27,3.11
		c0.03,0.5,0.15,1.1,0.29,1.73c0.46,2.17,1.08,5.15-2.41,6.21c-0.45,0.13-0.97,0.2-1.59,0.2c-2.61,0-6.52-1.18-10.31-2.33
		c-3.54-1.06-6.89-2.07-8.93-2.07c-2.13,0-2.97,1.37-3.94,2.97c-1.08,1.79-2.31,3.81-5.56,4.22c-1.66,0.21-16.52,2.03-26.46,2.03
		c-4.69,0-7.44-0.41-8.44-1.24c-0.5-0.42-0.91-0.64-1.24-0.64c-0.46,0-0.79,0.45-1.18,0.97c-0.47,0.64-1,1.37-1.96,1.37
		c-0.47,0-0.97-0.19-1.55-0.57c-2.72-1.82-6.25-4.64-7.47-5.64c-1.17,4.16-8.6,30.73-10.07,37.42c-0.31,1.41-0.69,3.11-1.11,4.96
		c-1.7,7.61-4.05,18.02-4.34,21.29c-0.34,3.82-0.77,27.99,1.81,32.54c2.77,4.89-2.03,29.49-2.46,30.48
		c-0.37,1.4,2.27,35.88,2.75,39.62c0.22,1.63-0.01,6.82-0.24,12.32c-0.19,4.4-0.38,8.94-0.38,12.17c0,7.95,3.59,38.97,4.98,40.36
		c0.32,0.13,0.27,0.42,0.27,0.48c-0.04,0.27-0.12,0.61-4.06,1.02C522.99,499.62,519.94,499.78,517.15,499.78z M492.88,496.36
		c3.99,0,9.44,0.23,12.72,1.35c3.24,1.09,8.07,1.32,11.55,1.32c5.35,0,10.23-0.54,11.52-0.91c-2-3.88-5.08-34.86-5.08-40.64
		c0-3.25,0.19-7.8,0.39-12.21c0.22-5.46,0.44-10.62,0.24-12.19c-0.3-2.36-3.27-38.72-2.7-40.02c0.48-1.06,4.99-25.43,2.5-29.81
		c-2.71-4.76-2.28-28.97-1.9-32.97c0.3-3.32,2.64-13.77,4.35-21.39c0.42-1.84,0.79-3.54,1.11-4.96c1.6-7.24,10.15-37.7,10.23-38
		l0.15-0.56l0.45,0.36c0.04,0.04,4.56,3.76,7.86,5.96c0.43,0.29,0.82,0.44,1.13,0.44c0.57,0,0.95-0.52,1.36-1.06
		c0.44-0.6,0.94-1.28,1.78-1.28c0.51,0,1.07,0.27,1.72,0.81c0.57,0.48,2.42,1.07,7.96,1.07c9.9,0,24.71-1.82,26.37-2.02
		c2.89-0.36,3.97-2.15,5.02-3.87c1-1.64,2.02-3.33,4.57-3.33c2.16,0,5.55,1.02,9.15,2.11c3.73,1.13,7.59,2.3,10.09,2.3
		c0.54,0,1-0.06,1.38-0.17c2.83-0.86,2.36-3.14,1.9-5.34c-0.14-0.67-0.27-1.29-0.3-1.85c-0.05-1.08-0.66-1.99-1.14-2.74
		c-0.43-0.65-0.75-1.13-0.6-1.58c0.06-0.22,0.22-0.39,0.48-0.51c9.46-4.2,9.49-5.21,9.62-10.03l0.02-0.93
		c0.08-2.25-1.28-5.38-8.15-7.53c-0.21-0.08-0.34-0.11-0.39-0.14c-0.03-0.01-0.11-0.03-0.2-0.05c-0.62-0.16-1.9-0.48-2.23-1.58
		c-0.28-0.95,0.23-2.12,1.58-3.59c1-1.11,2.11-1.66,3.3-1.66c2.91,0,5.7,3.21,8.8,7.08c2.18,2.71,4.53,5.24,7.04,5.24
		c1.48,0,2.94-0.86,4.48-2.64c0.98-1.14,1.92-2.33,2.82-3.46c3.36-4.24,6.83-8.63,13.57-11.89c9.19-4.45,8.72-12.26,8.09-15.41
		c-0.3-1.49-3.78-1.68-6.77-1.68c-1,0-2.03,0.02-3.06,0.05c-0.99,0.02-1.96,0.04-2.88,0.04c-3.04,0-5.15-0.22-5.62-1.35
		c-0.29-0.68,0.08-1.53,1.12-2.6c4.67-4.8,4.32-9.65,3.88-10.64l-0.31,0.16l-0.01-0.6c-0.01-0.73-0.3-1.96-2.12-1.96
		c-1.17,0-2.76,0.5-4.73,1.49c-5.79,2.89-10.1,4.3-13.16,4.3c-2.57,0-4.33-1-5.21-3c-0.4-0.88-0.43-1.62-0.09-2.24
		c0.88-1.59,4.15-2.08,9.56-2.86c3.29-0.48,7.39-1.08,12.13-2.11c9.6-2.08,12.86-5.1,13.9-7.28c0.87-1.81,0.36-3.34-0.01-4.1
		c-1.38-2.75-13.85-9.22-20.82-10.22c-6.23-0.89-17.13-7.8-18.74-10.66c-0.22-0.4-0.27-0.74-0.16-1.01
		c0.31-0.73,1.19-1.11,2.54-1.11c2.28,0,5.32,1.06,7.23,2.52c1.23,0.95,2.89,1.45,4.8,1.45c2.24,0,5.8-0.69,10.11-4.01
		c2.39-1.83,3.42-4.6,2.91-7.8c-0.6-3.81-3.1-6.91-5.06-7.59c-0.19-0.07-0.34-0.11-0.51-0.16l-1.73-0.55l1.8-0.18
		c0.58-0.05,1.12-0.25,1.61-0.6c1.01-0.71,2.35-1.24,3.64-1.76c1.67-0.66,3.4-1.35,3.4-2.15c0-0.45-1.09-1.29-2.05-2.04
		c-2.09-1.61-4.95-3.81-4.01-6.69c0.77-2.3,2.19-3.41,3.34-4.3c1.04-0.8,1.57-1.26,1.49-2.07c-0.18-1.55-4.48-4.43-10.17-4.43
		c-1.43,0-2.86,0.18-4.26,0.53c-4.8,1.2-13.16,1.73-19.31,1.73c-3.64,0-8.12-0.17-8.84-0.98c-0.18-0.18-0.24-0.42-0.19-0.67
		c0.19-0.91,2.1-1.84,5.21-3.28c2.08-0.97,4.43-2.06,5.14-2.87c0.36-0.42,0.45-0.68,0.4-0.79c-0.04-0.1-0.36-0.44-2.39-0.44
		c-0.69,0-1.51,0.04-2.67,0.11c-2.26,0.15-3.89-0.47-4.57-1.7c-0.4-0.72-0.64-1.96,0.5-3.83c0.29-0.48,0.32-0.91,0.08-1.35
		c-0.54-0.97-2.26-1.66-3.38-1.96l-0.06,0.26h-0.31c-0.48,0-6.82-2.01-7.69-3.51c-0.22-0.38-0.11-0.68-0.03-0.83
		c0.28-0.46,1.11-0.98,5.27-0.98c11.62,0,15.61-5.84,16.92-7.75c0.19-0.28,0.32-0.47,0.42-0.58c0.21-0.24,0.28-1.83-0.41-3.35
		c-0.48-1.06-1.44-2.32-3.29-2.32c-0.29,0-0.6,0.03-0.92,0.09c-2.51,0.5-4.26,0.72-5.7,0.72c-1.69,0-3.07-0.31-4.46-1
		c-0.84-0.42-1.29-0.85-1.41-1.37c-0.19-0.74,0.34-1.47,1.01-2.39c0.31-0.43,0.66-0.92,1-1.48c0.92-1.54,4.13-1.77,7.52-2.01
		c2.43-0.18,4.95-0.36,5.98-1.08c0.46-0.32,0.57-0.52,0.56-0.59c-0.04-0.33-1.38-0.8-2.46-1.18c-1.11-0.39-2.49-0.87-3.77-1.56
		c-1.07-0.57-1.55-1.12-1.53-1.72c0.04-1,1.48-1.64,3.15-2.37c0.74-0.33,1.49-0.66,2.09-1.02c1.6-0.95,2.7-2.41,2.83-3.73
		c0.08-0.81-0.22-1.53-0.89-2.12c-1.02-0.91-2.55-1.46-4.07-1.46c-1.94,0-3.74,0.86-5.08,2.42c-2.94,3.44-8.21,3.7-9.76,3.7
		c-0.96,0-1.87-0.09-2.65-0.24c-0.51-0.1-1.2-0.3-1.41-0.85c-0.25-0.68,0.36-1.4,1.27-2.5c0.81-0.98,1.83-2.2,2.49-3.72
		c1.36-3.12-3.02-5.12-7.67-7.24c-0.7-0.32-1.4-0.64-2.08-0.96c-2.05-0.98-4.97-1.52-8.21-1.52c-3.92,0-7.67,0.78-9.54,1.99
		c-1.52,0.98-1.37,1.47-1.2,1.99c0.29,0.92,0.12,1.52-1.58,2.25c-0.5,0.22-1.17,0.32-2.07,0.32c-5.47,0-17.37-3.96-21.28-5.26
		c-1.99-0.67-2.69-1.05-2.91-1.59c-0.18-0.44,0.04-0.85,0.28-1.31c0.35-0.65,0.82-1.54,0.64-3.12c-0.56-4.76-2.65-6.54-7.04-6.12
		c-1.82,0.18-3.96,0.67-6.02,1.14c-2.55,0.58-4.97,1.14-6.84,1.14c-1.12,0-1.93-0.2-2.51-0.61c-1.99-1.39-3.41-4.17-4.37-6.02
		c-0.28-0.53-0.51-0.99-0.7-1.29c-1.44-2.3-4.71-2.62-4.75-2.62c0.01,0-4.38,0.19-7.32,0.44c-2.77,0.23-4.13,0.79-4.63,4.88
		c-0.5,4.28-1.29,6.12-4.92,6.53c-2.49,0.28-4.22-0.04-4.98-0.93c-0.34-0.4-0.48-0.91-0.39-1.48c0.06-0.42-0.22-1.06-0.73-1.66
		c-0.57-0.66-1.3-1.13-1.79-1.13c-0.16,0-0.37,0.04-0.5,0.37c-0.83,2.08-10.89,7.93-12.38,7.93c-0.52,0-0.88-0.19-1.21-0.38
		c-0.42-0.22-0.84-0.45-1.73-0.45c-0.95,0-2.22,0.26-3.89,0.81c-1.07,0.35-1.75,0.9-2.1,1.67c-0.9,2.06,0.68,5.51,2.36,9.16
		c0.63,1.38,1.29,2.81,1.82,4.19c2.62,6.82-0.86,10.77-5.29,15.76c-2.35,2.67-5.59,4.01-9.6,4.01c-2.89,0-5.56-0.71-7.3-1.3
		c-1.86-0.64-3.67-1.78-5.28-2.78c-1.9-1.19-3.67-2.29-4.25-1.66c-0.3,0.32-0.62,0.76-0.96,1.22c-1.23,1.69-2.81,3.82-5.3,3.61
		c-0.61-0.05-1.2-0.13-1.75-0.21c-0.71-0.1-1.38-0.19-1.94-0.19c-1.14,0-1.7,0.39-2,1.38c-0.29,0.95-0.18,1.64-0.07,2.32
		c0.16,0.97,0.32,1.96-0.88,3.4c-0.86,1.04-1.5,1.36-2.01,1.61c-0.59,0.29-1.01,0.5-1.65,1.9c-0.22,0.49-0.24,0.93-0.04,1.35
		c0.71,1.51,4.07,2.38,5.88,2.85c0.69,0.19,1.22,0.27,1.6,0.33c1.46,0.24,1.5,0.49,1.77,2.46c0.18,1.23-0.01,2.18-0.6,2.89
		c-0.77,0.96-2.23,1.47-4.59,1.63c-2.43,0.16-5.7-2.19-8.57-4.25c-1.85-1.34-3.61-2.59-4.83-2.97c-1.72-0.52-2.21,0.91-2.75,3.36
		c-0.22,0.95-0.42,1.86-0.78,2.54c-0.79,1.49-2.66,1.67-4.01,1.67c-0.29,0-0.56-0.01-0.79-0.01c-0.18-0.01-0.34-0.02-0.46-0.02
		c-0.18,0-0.25,0.02-0.25,0.02c0.02,0-0.06,0.04-0.17,0.11c-3.71,2.19-4.01,3.21-3.97,3.53c0.04,0.31,0.5,0.51,0.87,0.63
		c3.49,1.04,3,3.58,2.57,5.82c-0.07,0.39-0.15,0.78-0.2,1.17c-0.35,2.43-0.36,2.53,4.33,4.05c1.42,0.46,2.73,0.77,3.89,1.03
		c2.07,0.48,3.43,0.79,3.73,1.67c0.16,0.45,0,0.98-0.5,1.61c-0.99,1.25-2.94,1.51-4.66,1.74c-1.96,0.26-3.15,0.48-3.2,1.4
		c-0.02,0.47-0.06,0.84-0.09,1.15c-0.12,1.23-0.12,1.23,1.44,2.52c0.36,0.29,0.85,0.44,1.54,0.44c1.57,0,3.7-0.79,5.58-1.49
		c1.15-0.42,2.25-0.83,3.11-1.02c0.92-0.19,1.39-0.28,1.7-0.28c0.13,0,0.51,0,0.66,0.33c0.2,0.4-0.13,0.81-0.92,1.81
		c-0.17,0.22-0.36,0.45-0.57,0.72c-0.87,1.12,0.32,3.41,1.37,5.43c0.86,1.65,1.61,3.08,1.43,4.08l-0.02,0.16
		c-0.16,0.88-0.28,1.58-1.2,1.58c-0.57,0-1.44-0.28-3.18-0.83c-0.75-0.24-1.67-0.53-2.77-0.86c-0.66-0.2-1.33-0.3-1.99-0.3
		c-5.02,0-9.13,5.76-12.13,9.98l-0.6,0.84c-1.35,1.9-1.83,3.43-1.41,4.57c0.39,1.06,1.59,1.84,3.55,2.3
		c2.45,0.59,5.27,2.03,6.11,3.93c0.37,0.86,0.31,1.72-0.16,2.57c-0.85,1.51-2.4,2.3-4.48,2.3c-1.54,0-3.34-0.46-5.06-1.28
		l-0.73-0.36c-2.25-1.09-5.06-2.46-6.7-2.46c-0.82,0-1.03,0.35-1.11,0.61c-0.75,2.24-3.44,6.47-5.54,8.7
		c-1.03,1.09,0.36,5.39,1.37,8.53c0.92,2.86,1.47,4.65,1.2,5.47c-0.25,0.73-0.71,1.11-1.38,1.11c-0.36,0-0.74-0.11-1.11-0.22
		c-0.48-0.13-0.95-0.25-1.21-0.11c-0.43,0.24-1.12-0.05-2.05-0.5c-1.05-0.49-2.35-1.12-3.71-1.12c-1.36,0-2.51,0.63-3.5,1.93
		c-2.53,3.31-1.58,4.94-0.15,7.41c0.5,0.86,1.06,1.83,1.53,2.98c0.77,1.86,4.12,2.11,7.29,2.11c0.76,0,1.53-0.01,2.29-0.03
		c0.72-0.01,1.43-0.02,2.1-0.02c2.65,0,4.54,0.22,5.09,1.31c1.22,2.45-2.56,6.09-6.42,9.33l-0.5,0.42
		c-0.51,0.45-0.74,0.78-0.75,1.09c-0.02,0.68,1.03,1.68,2.75,3.34l0.25,0.24c1.96,1.89,6.89,2.71,11.24,3.44
		c2.25,0.37,4.37,0.72,5.85,1.19c2.67,0.84,3.81,2.34,4.31,3.45c0.47,1.07,0.54,2.28,0.16,3.09c-0.38,0.83-1.31,0.87-2.29,0.92
		c-0.95,0.05-2.02,0.11-2.76,0.85c-1.12,1.13-0.94,1.34,0.51,2.97c0.27,0.29,0.55,0.62,0.87,0.99c1.06,1.23,2.24,1.11,3.02,1.06
		c0.16-0.02,0.31-0.02,0.45-0.02c0.18,0,0.6,0,0.83,0.32c0.22,0.32,0.11,0.77-0.01,1.12c-0.4,1.13-1.78,2.66-3.24,4.28
		c-1.35,1.5-2.75,3.04-3.09,4.03c-0.2,0.57-0.74,2.12-0.49,2.47c0.07,0.1,0.32,0.1,0.68,0.02c0.44-0.1,1.01-0.45,1.75-0.88
		c1.69-1.01,4.25-2.55,8.12-2.72c2.89-0.13,5.59,0.52,7.95,1.1c2.13,0.52,4.15,0.98,5.67,0.77c3.27-0.47,3.52-5.44,3.52-6.96
		c0-0.77-1.29-1.58-2.54-2.36c-1.32-0.83-2.56-1.6-2.89-2.6c-0.23-0.71-0.45-1.59,0-2.21c0.39-0.53,1.16-0.77,2.6-0.77
		c1.06,0,2.76,1.52,5.67,4.19c3.39,3.11,7.61,6.97,10.47,7.1c5.06,0.25,15.57,8.27,16.69,10.5c0.57,1.16,0.25,1.93-0.12,2.81
		c-0.34,0.83-0.77,1.86-0.71,3.67c0.06,1.88,3.47,4.35,6.47,6.53c2.92,2.11,5.44,3.94,5.56,5.49l0.05,0.61
		c0.2,2.58,0.55,6.89,2.08,6.98l0.09,0.01c0.69,0,0.92-0.57,1.33-1.75c0.33-0.99,0.76-2.21,1.77-3.23c2.18-2.17,6.03-2.59,6.19-2.6
		l0.33-0.04l0.08,0.32c0.03,0.14,3.23,13.86,4.45,19.75c1.28,6.13,1.77,11.22,2.37,18.28c0.45,5.34,2.34,10.66,3.85,14.93
		c0.54,1.53,1.01,2.85,1.35,3.98c1.33,4.52,1.33,33.33,0,38.53c-0.91,3.58-1.04,16.79-1.15,27.41c-0.04,5.12-0.09,9.55-0.21,12.22
		c-0.15,3.22-0.44,6.57-0.72,9.8c-0.45,5.13-0.87,9.98-0.64,13.6c0.36,5.94-4.56,40.09-5.84,47.24c-0.64,3.58-4.56,12.84-8.01,21.02
		c-2.35,5.57-4.98,11.8-5.3,13.42C477.26,497.15,485.67,496.36,492.88,496.36z M510.53,300.67c-3.29,0-6.98-13.85-7.16-17.84
		c-0.18-4-0.91-14.96-2.19-17.53c-1.17-2.34-1.17-2.34-1.52-2.77l-0.34-0.38l0.19-0.47h0.41l0.12,0.13
		c0.03,0.02,0.86,0.83,2.83,0.83c0.92,0,1.94-0.18,3.04-0.53c4.71-1.5,5.35-3.41,4.92-6.6c-0.11-0.77-0.17-1.37-0.21-1.83
		c-0.13-1.23-0.13-1.23-0.74-1.26c-0.39,0-0.66,0.1-0.97,0.21c-0.34,0.13-0.7,0.25-1.1,0.25c-0.66,0-1.24-0.35-1.81-1.11
		c-0.5-0.65-0.65-1.43-0.44-2.25c0.37-1.44,1.73-2.71,2.57-3.09c0.2-0.09,0.4-0.14,0.59-0.14c0.72,0,1.1,0.65,1.47,1.26
		c0.16,0.28,0.34,0.58,0.55,0.84l0.15,0.19c0.78,0.97,2.08,2.59,4.23,2.59h0.1c0.3-0.01,0.57-0.01,0.82-0.01
		c0.77-0.01,1.44-0.01,1.56-0.19c0.12-0.16,0.03-0.65-0.25-1.47c-0.33-1-0.85-1.76-1.32-2.44c-0.65-0.94-1.25-1.82-1.05-2.96
		c0.34-1.95,1.7-2.33,1.76-2.34c0.65-0.05,1.18-0.12,1.65-0.18c0.56-0.06,1.03-0.12,1.46-0.12c1.39,0,2.03,0.68,2.2,2.37
		c0.28,2.71,1.88,4.31,3.16,5.59c0.87,0.86,0.34,2-0.33,3.43c-0.61,1.29-1.35,2.9-1.62,5.06c-0.18,1.52-0.32,3.85-0.48,6.56
		c-0.34,5.5-0.74,12.35-1.75,16.02c-1.35,4.85-7.14,19.72-10.35,20.16C510.64,300.66,510.58,300.67,510.53,300.67z M500.9,263.1
		c0.2,0.37,0.48,0.94,0.94,1.87c1.62,3.24,2.26,17.68,2.27,17.83c0.19,4.47,4.02,17.13,6.41,17.13c2.43-0.33,8.11-13.54,9.79-19.63
		c0.99-3.58,1.4-10.4,1.73-15.86c0.16-2.72,0.3-5.07,0.48-6.6c0.28-2.28,1.08-4.02,1.68-5.29c0.66-1.41,0.95-2.12,0.48-2.59
		c-1.29-1.3-3.07-3.07-3.37-6.05c-0.17-1.58-0.71-1.69-1.47-1.69c-0.38,0-0.84,0.05-1.37,0.12c-0.48,0.05-1,0.12-1.58,0.16
		c-0.16,0.06-0.95,0.42-1.19,1.75c-0.15,0.84,0.34,1.53,0.93,2.4c0.49,0.72,1.06,1.53,1.41,2.63c0.33,0.99,0.47,1.69,0.14,2.14
		c-0.34,0.49-1.03,0.5-2.16,0.51c-0.25,0-0.51,0.01-0.8,0.02h-0.12c-2.51,0-3.94-1.8-4.81-2.87l-0.15-0.18
		c-0.25-0.31-0.44-0.63-0.62-0.93c-0.42-0.71-0.62-1.04-1.12-0.83c-0.7,0.31-1.85,1.45-2.14,2.6c-0.16,0.61-0.05,1.15,0.31,1.61
		c0.56,0.73,0.96,0.82,1.22,0.82c0.27,0,0.55-0.1,0.85-0.21c0.34-0.12,0.73-0.26,1.15-0.26h0.11c1.26,0.07,1.3,0.46,1.44,1.93
		c0.04,0.45,0.1,1.04,0.2,1.8c0.47,3.45-0.27,5.77-5.43,7.42c-1.17,0.37-2.27,0.57-3.27,0.57
		C502.06,263.39,501.41,263.26,500.9,263.1z"/>
	<path class="st8" d="M517.15,500.73c-3.61,0-8.64-0.25-12.09-1.42c-2.43-0.82-6.64-1.26-12.18-1.26c-8.62,0-16.55,1.03-17.45,1.43
		c-0.66,0.33-1.47,0.12-1.86-0.48c-0.66-1-0.39-2.01,5.21-15.26l0.12-0.28c3.37-7.98,7.18-17.02,7.78-20.38
		c1.27-7.12,6.17-41.03,5.82-46.84c-0.23-3.73,0.19-8.6,0.64-13.76l0.06-0.65c0.26-3.03,0.53-6.17,0.66-9.17
		c0.12-2.62,0.16-7,0.21-12.05c0.1-10.88,0.24-24.15,1.2-27.92c1.33-5.2,1.08-33.99,0.01-37.63c-0.33-1.09-0.78-2.39-1.32-3.89
		c-1.47-4.16-3.48-9.81-3.95-15.36c-0.59-6.98-1.07-12.01-2.33-18.07c-0.99-4.75-3.3-14.79-4.16-18.5
		c-1.14,0.26-2.92,0.81-4.02,1.91c-0.75,0.75-1.08,1.72-1.36,2.58c-0.42,1.23-1,2.9-2.95,2.9c-3.18-0.2-3.55-4.84-3.85-8.55
		l-0.04-0.61c-0.1-0.79-3.06-2.94-4.83-4.23c-3.68-2.66-7.12-5.15-7.21-7.87c-0.07-2.17,0.48-3.5,0.84-4.37
		c0.36-0.86,0.39-0.97,0.16-1.41c-0.76-1.54-10.72-9.35-15.25-9.57c-3.47-0.17-7.75-4.09-11.52-7.55c-1.47-1.34-3.93-3.59-4.6-3.74
		c-0.59,0-0.92,0.05-1.09,0.1c0.02,0.13,0.07,0.33,0.17,0.65c0.14,0.43,1.47,1.25,2.18,1.69c1.64,1.03,3.35,2.1,3.35,3.81
		c0,1.86-0.36,7.97-4.98,8.63c-1.74,0.26-3.99-0.22-6.31-0.8c-2.34-0.57-4.84-1.18-7.47-1.05c-3.46,0.16-5.7,1.5-7.33,2.48
		c-0.82,0.49-1.52,0.91-2.22,1.08c-1.36,0.31-2.12-0.23-2.46-0.69c-0.71-1-0.31-2.35,0.28-4.02c0.46-1.32,1.91-2.91,3.43-4.6
		c0.85-0.95,1.82-2.02,2.39-2.85c-0.73-0.01-2.22-0.19-3.48-1.67c-0.31-0.36-0.58-0.68-0.83-0.95c-1.4-1.57-2.71-3.05-0.46-5.31
		c1.21-1.2,2.81-1.29,3.87-1.34c0.27-0.01,0.85-0.04,1-0.11c-0.04-0.08,0.02-0.76-0.31-1.52c-0.35-0.79-1.2-1.87-3.26-2.51
		c-1.32-0.42-3.29-0.75-5.36-1.1l-0.26-0.04c-4.6-0.76-9.79-1.62-12.15-3.88l-0.25-0.24c-2.2-2.11-3.31-3.17-3.27-4.6
		c0.04-1.09,0.78-1.85,1.35-2.33l0.5-0.42c6.13-5.15,6.24-6.8,6-7.28c-0.07-0.04-0.66-0.38-3.57-0.38c-0.64,0-1.31,0.02-2,0.03
		c-0.95,0.02-1.73,0.04-2.49,0.04c-3.87,0-7.61-0.39-8.76-3.16c-0.42-1.03-0.95-1.95-1.42-2.75c-1.53-2.63-2.96-5.1,0.26-9.31
		c1.29-1.7,2.97-2.6,4.85-2.6c1.73,0,3.29,0.74,4.42,1.27c0.28,0.14,0.66,0.31,0.88,0.4c0.66-0.21,1.47-0.07,2.14,0.12
		c0.12,0.04,0.25,0.07,0.37,0.1c-0.04-0.85-0.77-3.07-1.17-4.32c-1.39-4.32-2.71-8.39-1-10.21c1.9-2.02,4.51-6.08,5.18-8.08
		c0.37-1.12,1.37-1.77,2.72-1.77c2.01,0,4.87,1.38,7.39,2.61l0.77,0.36c1.49,0.72,3.03,1.12,4.32,1.12c1.46,0,2.46-0.48,3-1.44
		c0.22-0.39,0.25-0.69,0.09-1.06c-0.49-1.12-2.62-2.4-4.95-2.96c-2.54-0.61-4.13-1.74-4.74-3.36c-0.63-1.7-0.09-3.77,1.61-6.14
		l0.61-0.84c3.21-4.52,7.6-10.69,13.51-10.69c0.84,0,1.67,0.13,2.48,0.37c1.12,0.33,2.03,0.62,2.79,0.86
		c0.81,0.26,1.64,0.52,2.18,0.65c0.01-0.02,0.01-0.04,0.02-0.07c0.09-0.63-0.72-2.19-1.2-3.12c-1.22-2.34-2.57-4.92-1.53-6.87
		c-0.54,0.18-1.14,0.4-1.76,0.63c-2.02,0.74-4.31,1.58-6.17,1.58c-1.07,0-1.96-0.28-2.62-0.82c-1.89-1.55-2.24-2.03-2.05-3.99
		c0.03-0.32,0.07-0.66,0.08-1.07c0.12-2.38,2.62-2.72,4.64-3c1.28-0.16,2.98-0.39,3.56-1.09c-0.56-0.2-1.55-0.42-2.26-0.59
		c-1.13-0.26-2.53-0.58-4.03-1.07c-4.9-1.6-6.04-2.12-5.5-5.91c0.04-0.34,0.11-0.67,0.17-1.01l0.04-0.24
		c0.47-2.42,0.53-3.29-1.4-3.88c-1.65-0.49-2-1.49-2.06-2.05c-0.19-1.52,1.24-3.09,4.78-5.18c0.51-0.33,0.91-0.36,1.28-0.36
		l0.45,0.01c1.94,0.1,3-0.14,3.32-0.74c0.25-0.48,0.43-1.26,0.62-2.08c0.46-2.06,1.09-4.83,3.75-4.83c0.39,0,0.78,0.06,1.18,0.19
		c1.45,0.45,3.25,1.73,5.15,3.09l0.24,0.16c2.41,1.73,5.41,3.89,7.26,3.89c2.38-0.16,3.21-0.63,3.52-1.01
		c0.27-0.33,0.34-0.85,0.24-1.58c-0.06-0.39-0.11-0.78-0.16-0.99c-0.07-0.01-0.13-0.02-0.22-0.04c-0.41-0.06-0.98-0.16-1.75-0.36
		c-3-0.77-6-1.71-6.97-3.76c-0.42-0.86-0.4-1.82,0.03-2.77c0.83-1.83,1.57-2.3,2.45-2.73c0.42-0.21,0.83-0.41,1.46-1.18
		c0.7-0.84,0.65-1.16,0.51-2.03c-0.13-0.78-0.28-1.75,0.11-3.08c0.52-1.72,1.73-2.59,3.62-2.59c0.6,0,1.26,0.09,1.97,0.18
		c0.73,0.1,1.29,0.18,1.87,0.23h0.01c1.64,0,2.77-1.54,3.76-2.91c0.46-0.62,0.78-1.05,1.09-1.39c0.43-0.48,1.03-0.73,1.73-0.73
		c1.32,0,2.8,0.93,4.67,2.1c1.56,0.98,3.28,2.04,4.93,2.61c1.62,0.55,4.11,1.21,6.75,1.21c3.52,0,6.32-1.16,8.34-3.44
		c4.75-5.37,7.12-8.43,4.96-14.03c-0.51-1.35-1.15-2.74-1.78-4.09c-1.84-4.03-3.58-7.8-2.36-10.55c0.53-1.22,1.58-2.1,3.12-2.6
		c1.82-0.6,3.26-0.89,4.42-0.89c1.31,0,2.04,0.39,2.53,0.65c0.28,0.15,0.33,0.17,0.41,0.17c1.36-0.15,10.12-5.47,10.81-6.87
		c0.36-0.89,1.13-1.43,2.07-1.43c1.49,0,2.73,1.31,3.08,1.72c0.86,1.02,1.26,2.09,1.11,3.03c0.14,0.26,0.74,0.55,2.11,0.55
		c0.43,0,0.9-0.03,1.4-0.08c2.29-0.25,2.93-0.87,3.43-5.04c0.58-4.96,2.7-6.09,6.16-6.37c2.92-0.25,7.38-0.44,7.47-0.44
		c0.24,0.01,4.25,0.35,6.16,3.41c0.21,0.35,0.47,0.84,0.76,1.42c0.82,1.59,2.19,4.24,3.84,5.4c0.2,0.14,0.62,0.3,1.54,0.3
		c1.68,0,3.99-0.53,6.45-1.1c2.17-0.5,4.34-1,6.26-1.18c0.45-0.04,0.88-0.06,1.29-0.06c6.69,0,7.36,5.78,7.59,7.68
		c0.24,2.01-0.36,3.24-0.76,4c0.3,0.13,0.79,0.33,1.61,0.6c10.32,3.44,17.29,5.18,20.74,5.18c0.88,0,1.27-0.12,1.39-0.18
		c0.3-0.13,0.5-0.23,0.61-0.3c-0.42-1.57,0.19-2.7,1.93-3.82c2.14-1.37,6.24-2.26,10.46-2.26c3.5,0,6.67,0.6,8.94,1.68
		c0.47,0.23,0.94,0.44,1.42,0.66l0.63,0.29c4.94,2.26,10.54,4.81,8.52,9.46c-0.77,1.76-1.92,3.13-2.75,4.13
		c-0.15,0.18-0.36,0.43-0.54,0.67c0.6,0.1,1.3,0.15,2.02,0.15c1.36,0,6-0.22,8.47-3.11c1.67-1.94,3.93-3.01,6.37-3.01
		c1.95,0,3.84,0.69,5.19,1.9c1.06,0.94,1.58,2.2,1.46,3.54c-0.16,1.83-1.59,3.8-3.64,5.03c-0.62,0.38-1.38,0.71-2.13,1.04
		c-0.54,0.24-1.43,0.63-1.96,0.94c0.08,0.05,0.19,0.12,0.31,0.18c1.18,0.63,2.49,1.09,3.53,1.45c1.99,0.71,3.39,1.21,3.57,2.57
		c0.12,0.79-0.31,1.54-1.26,2.2c-1.41,0.99-4.04,1.18-6.83,1.37c-2.05,0.15-5.72,0.42-6.18,1.2c-0.37,0.62-0.74,1.13-1.08,1.59
		c-0.24,0.33-0.54,0.74-0.67,0.99c0.08,0.06,0.22,0.15,0.45,0.26c2.24,1.12,4.21,1.12,9.08,0.14c2.8-0.56,5.08,0.76,6.18,3.42
		c0.61,1.47,1,3.99-0.02,5.02c-0.01,0.02-0.11,0.17-0.23,0.34c-1.44,2.1-5.8,8.49-18.32,8.49c-1.05,0-1.83,0.03-2.41,0.08
		c1.05,0.49,2.51,1.08,3.81,1.52c0.15-0.05,0.32-0.08,0.53-0.08c0.72,0,4.53,0.77,5.77,2.98c0.53,0.98,0.49,2.06-0.12,3.06
		c-0.55,0.9-0.73,1.67-0.48,2.12c0.33,0.59,1.48,0.93,2.98,0.83c1.2-0.09,2.06-0.12,2.78-0.12c1.71,0,3.37,0.17,3.93,1.43
		c0.25,0.57,0.34,1.47-0.68,2.61c-0.95,1.09-3.26,2.16-5.7,3.29c-0.67,0.3-1.97,0.91-3,1.45c1.13,0.12,3.03,0.25,6.11,0.25
		c6.05,0,14.24-0.52,18.9-1.68c1.54-0.39,3.11-0.58,4.67-0.58c6.3,0,11.54,3.19,11.85,5.93c0.2,1.78-1.03,2.74-2.1,3.58
		c-1.04,0.81-2.2,1.7-2.79,3.51c-0.53,1.61,1.15,3.06,3.41,4.8c1.53,1.19,2.73,2.11,2.73,3.4c0,1.95-2.17,2.81-4.46,3.73
		c-1.01,0.4-2.04,0.82-2.85,1.29c2.01,1.71,3.66,4.7,4.14,7.7c0.61,3.84-0.65,7.18-3.55,9.42c-4.69,3.6-8.65,4.36-11.15,4.36
		c-2.28,0-4.3-0.62-5.84-1.8c-1.58-1.22-4.29-2.17-6.19-2.17c-0.22,0-0.41,0.02-0.56,0.03c2.24,2.54,11.33,8.55,17.15,9.38
		c6.6,0.94,20.24,7.43,22.09,11.14c0.51,1.03,1.2,3.12,0.02,5.59c-1.21,2.52-4.8,5.99-15.08,8.21c-4.8,1.04-8.92,1.64-12.23,2.13
		c-4.05,0.6-7.85,1.15-8.33,2.02c-0.04,0.07-0.03,0.31,0.16,0.72c1.5,3.39,6.69,2.55,16.07-2.13c2.2-1.1,4.04-1.66,5.48-1.66
		c2.42,0,3.51,1.5,3.76,3c0.1,0.13,0.18,0.29,0.24,0.45c0.62,1.44,1.18,6.91-4.22,12.47c-0.33,0.34-0.52,0.59-0.62,0.75
		c0.42,0.14,1.43,0.33,3.9,0.33c0.75,0,1.55-0.02,2.36-0.03l0.48-0.01c1.03-0.03,2.08-0.04,3.09-0.04c3.79,0,7.88,0.23,8.44,3.04
		c0.71,3.53,1.24,12.3-9.01,17.26c-6.38,3.09-9.59,7.13-12.98,11.41c-0.92,1.17-1.88,2.36-2.87,3.53c-1.87,2.17-3.76,3.23-5.77,3.23
		c-3.21,0-5.92-2.83-8.37-5.87c-2.05-2.57-5.15-6.44-7.47-6.44c-0.71,0-1.36,0.35-2.05,1.1c-1.08,1.2-1.24,1.84-1.21,1.97
		c0.04,0.06,0.2,0.22,1.03,0.43c0.24,0.07,0.37,0.11,0.49,0.16c8.05,2.53,9.61,6.42,9.53,9.25l-0.03,0.93
		c-0.16,5.67-0.91,7.14-9.76,11.15c0.54,0.83,1.34,2.05,1.41,3.58c0.02,0.45,0.14,1,0.27,1.57c0.45,2.12,1.26,6.02-3.06,7.33
		c-2.67,0.8-7.61-0.66-12.45-2.13c-3.52-1.06-6.77-2.03-8.66-2.03c-1.52,0-2.12,0.86-3.13,2.52c-1.13,1.87-2.54,4.19-6.25,4.66
		c-1.67,0.21-16.52,2.04-26.58,2.04c-6.48,0-8.24-0.78-9.05-1.47c-0.45-0.38-0.64-0.42-0.65-0.42c0.01,0.04-0.23,0.37-0.39,0.59
		c-0.53,0.71-1.3,1.75-2.72,1.75c-0.65,0-1.34-0.24-2.08-0.73c-2.19-1.45-4.83-3.51-6.42-4.78c-2.76,9.88-8.4,30.22-9.67,35.97
		l-1.24,5.51c-1.65,7.38-3.91,17.49-4.2,20.63c-0.39,4.31-0.66,27.82,1.7,31.98c3.04,5.35-1.98,30.33-2.41,31.33
		c-0.19,1.58,2.23,34.61,2.82,39.12c0.22,1.7,0.01,6.65-0.22,12.38c-0.19,4.55-0.39,9.05-0.39,12.24c0,8.2,3.42,36.83,4.72,39.66
		c0.39,0.29,0.6,0.76,0.53,1.29c-0.19,1.13-1.06,1.45-4.91,1.86C523.06,500.57,519.98,500.73,517.15,500.73z M492.88,495.4
		c4.07,0,9.63,0.25,13.03,1.41c3.14,1.05,7.85,1.27,11.25,1.27c4.38,0,8.31-0.36,10.24-0.67c-2.13-7.07-4.75-35.01-4.75-39.92
		c0-3.24,0.19-7.77,0.38-12.15l0.02-0.39c0.21-5.05,0.42-10.27,0.23-11.73c-0.04-0.36-3.43-38.72-2.62-40.53
		c0.62-1.7,4.71-25.13,2.54-28.96c-2.98-5.25-2.3-30.54-2.02-33.53c0.31-3.38,2.66-13.84,4.38-21.48c0.41-1.87,0.79-3.57,1.11-4.99
		c1.59-7.2,10.18-37.82,10.25-38.06l0.52-1.95l1.58,1.29c0.06,0.04,4.54,3.74,7.79,5.9c0.41,0.28,0.6,0.28,0.6,0.28
		c0.12-0.04,0.42-0.44,0.6-0.67c0.48-0.67,1.22-1.67,2.54-1.67c0.74,0,1.49,0.33,2.33,1.03c0.11,0.1,1.17,0.86,7.35,0.86
		c9.43,0,23.52-1.68,26.25-2.02c2.44-0.31,3.31-1.75,4.32-3.41c1.03-1.7,2.31-3.79,5.39-3.79c2.31,0,5.77,1.04,9.42,2.15
		c3.69,1.12,7.47,2.25,9.82,2.25c0.55,0,0.91-0.08,1.11-0.13c1.81-0.55,1.78-1.65,1.23-4.22c-0.17-0.8-0.3-1.44-0.33-2.01
		c-0.04-0.79-0.53-1.55-0.96-2.22c-0.54-0.81-1.01-1.54-0.74-2.42c0.1-0.33,0.35-0.81,1.01-1.09c8.9-3.96,8.92-4.66,9.04-9.18
		l0.02-0.92c0.09-2.76-2.5-5.04-7.49-6.6l-0.22-0.08c-0.07-0.02-0.13-0.04-0.19-0.06c-0.89-0.23-2.55-0.69-3.03-2.27
		c-0.39-1.29,0.19-2.77,1.78-4.51c1.2-1.32,2.54-1.98,4.01-1.98c3.32,0,6.29,3.37,9.55,7.44c2.03,2.54,4.2,4.88,6.29,4.88
		c1.18,0,2.42-0.76,3.76-2.31c0.97-1.13,1.9-2.3,2.79-3.43c3.45-4.35,6.99-8.81,13.91-12.16c8.6-4.16,8.15-11.43,7.56-14.37
		c-0.01-0.04-0.24-0.91-5.84-0.91c-0.99,0-2.02,0.02-3.03,0.05c-1,0.02-1.99,0.04-2.91,0.04c-3.6,0-5.82-0.31-6.5-1.93
		c-0.67-1.59,0.83-3.13,1.32-3.64c3.38-3.48,3.91-6.85,3.85-8.55l-0.53,0.27l-0.03-2.14c-0.01-0.74-0.33-1.03-1.17-1.03
		c-0.71,0-2.02,0.25-4.31,1.38c-5.91,2.96-10.35,4.4-13.59,4.4c-3.73,0-5.36-1.93-6.08-3.56c-0.52-1.16-0.54-2.19-0.05-3.08
		c1.11-2.02,4.36-2.49,10.26-3.35c3.32-0.49,7.38-1.09,12.06-2.11c9.71-2.1,12.46-5.14,13.24-6.76c0.66-1.36,0.37-2.53,0-3.26
		c-1.16-2.31-13.05-8.69-20.09-9.7c-6.59-0.94-17.7-8.06-19.44-11.14c-0.47-0.85-0.36-1.48-0.19-1.87c0.33-0.76,1.19-1.67,3.41-1.67
		c2.51,0,5.73,1.11,7.81,2.72c1.06,0.82,2.52,1.25,4.22,1.25c2.09,0,5.44-0.66,9.53-3.81c2.1-1.61,3-4.06,2.55-6.9
		c-0.58-3.66-2.95-6.32-4.43-6.84l-6.59-2.1l6.37-0.65c0.42-0.04,0.8-0.18,1.15-0.42c1.09-0.76,2.45-1.31,3.76-1.84
		c0.85-0.34,2.24-0.89,2.74-1.29c-0.35-0.36-1.11-0.94-1.55-1.29c-2.19-1.68-5.49-4.22-4.33-7.75c0.85-2.57,2.46-3.82,3.64-4.74
		c1.02-0.79,1.17-0.99,1.14-1.23c-0.1-0.76-3.65-3.58-9.21-3.58c-1.35,0-2.71,0.17-4.03,0.5c-4.89,1.22-13.34,1.76-19.54,1.76
		c-8.39,0-9.18-0.88-9.55-1.29c-0.37-0.39-0.52-0.94-0.42-1.48c0.29-1.38,2.07-2.27,5.75-3.97c1.41-0.65,3.41-1.58,4.38-2.26
		c-0.68-0.04-1.74-0.02-3.44,0.08c-2.63,0.21-4.59-0.61-5.47-2.17c-0.53-0.94-0.86-2.54,0.53-4.8c0.14-0.24,0.1-0.3,0.06-0.38
		c-0.22-0.4-0.97-0.87-1.91-1.22l-1,0.01c-0.69,0-7.41-2.09-8.52-3.99c-0.33-0.58-0.34-1.25-0.02-1.79
		c0.53-0.89,1.73-1.45,6.08-1.45c11.12,0,14.9-5.52,16.14-7.33c0.15-0.23,0.28-0.4,0.38-0.54c0.05-0.33,0.04-1.38-0.45-2.46
		c-0.8-1.76-2.02-1.76-2.42-1.76c-0.23,0-0.48,0.02-0.74,0.07c-2.55,0.51-4.37,0.74-5.89,0.74c-1.86,0-3.36-0.34-4.89-1.11
		c-1.09-0.54-1.72-1.19-1.92-2c-0.29-1.16,0.42-2.14,1.16-3.17c0.34-0.48,0.66-0.92,0.96-1.41c1.17-1.96,4.44-2.19,8.23-2.47
		c1.74-0.13,3.78-0.28,4.92-0.63c-0.35-0.13-0.71-0.26-0.97-0.36c-1.22-0.43-2.63-0.93-3.97-1.64c-0.89-0.48-2.08-1.27-2.04-2.59
		c0.07-1.61,1.84-2.39,3.72-3.21c0.82-0.37,1.46-0.65,1.98-0.97c1.32-0.79,2.28-2,2.37-3c0.04-0.51-0.14-0.93-0.58-1.32
		c-0.86-0.76-2.14-1.22-3.44-1.22c-1.66,0-3.21,0.74-4.36,2.09c-3.21,3.74-8.83,4.03-10.48,4.03c-1.01,0-1.99-0.09-2.84-0.26
		c-0.42-0.08-1.71-0.34-2.11-1.47c-0.43-1.18,0.39-2.17,1.43-3.42c0.8-0.98,1.75-2.13,2.36-3.51c0.91-2.1-2.25-3.74-7.19-5.99
		l-2.08-0.96c-1.93-0.92-4.71-1.43-7.81-1.43c-3.69,0-7.32,0.74-9.03,1.83c-0.77,0.5-0.86,0.73-0.87,0.74
		c0.68,2.12-0.66,2.99-2.05,3.58c-0.62,0.27-1.39,0.39-2.44,0.39c-5.62,0-17.6-3.99-21.54-5.3c-2.14-0.72-3.15-1.2-3.53-2.16
		c-0.34-0.86,0.04-1.58,0.33-2.11c0.32-0.59,0.69-1.27,0.54-2.55c-0.59-5.02-2.77-5.61-6.01-5.29c-1.75,0.17-3.84,0.65-5.86,1.11
		c-4.5,1.03-8.28,1.7-10.15,0.4c-2.17-1.52-3.67-4.42-4.66-6.33l-0.14-0.27c-0.2-0.39-0.38-0.74-0.53-0.97
		c-1.1-1.76-3.63-2.14-3.99-2.19c-0.08,0.01-0.16,0.01-0.24,0.02c-1.07,0.05-4.51,0.22-6.95,0.42c-2.36,0.2-3.33,0.42-3.76,4.05
		c-0.47,3.99-1.15,6.85-5.75,7.36c-2.88,0.32-4.82-0.11-5.8-1.26c-0.53-0.62-0.74-1.41-0.62-2.25c0-0.05-0.08-0.4-0.51-0.89
		c-0.3-0.35-0.62-0.59-0.84-0.7c-1.65,2.64-11.3,8.21-13.1,8.21c-0.77,0-1.32-0.3-1.67-0.49c-0.37-0.2-0.63-0.34-1.27-0.34
		c-0.84,0-2.04,0.26-3.6,0.76c-1.06,0.34-1.37,0.82-1.52,1.15c-0.72,1.67,0.84,5.07,2.35,8.36c0.66,1.41,1.31,2.86,1.85,4.26
		c2.83,7.37-1.01,11.71-5.46,16.74c-2.54,2.87-6.01,4.34-10.32,4.34c-3,0-5.79-0.74-7.6-1.35c-1.98-0.68-3.84-1.85-5.48-2.87
		c-1.02-0.64-2.53-1.59-3.16-1.69c-0.23,0.27-0.48,0.61-0.74,0.96c-1.33,1.83-3.09,4.3-6.19,4.04c-0.63-0.05-1.24-0.14-1.81-0.22
		c-0.65-0.09-1.28-0.18-1.81-0.18c-0.8,0-0.92,0.18-1.08,0.7c-0.23,0.75-0.14,1.28-0.04,1.89c0.16,1.01,0.39,2.39-1.08,4.16
		c-1,1.2-1.76,1.58-2.33,1.85c-0.48,0.23-0.71,0.35-1.21,1.45c-0.14,0.3-0.1,0.43-0.05,0.54c0.53,1.11,3.95,2,5.24,2.35
		c0.67,0.17,1.17,0.25,1.52,0.31c2.15,0.35,2.28,1.26,2.57,3.25c0.21,1.49-0.05,2.71-0.8,3.64c-0.96,1.18-2.63,1.81-5.27,1.98
		l-0.3,0.01c-2.73,0-6-2.36-8.9-4.43c-1.62-1.17-3.45-2.49-4.56-2.83c-0.14-0.04-0.26-0.07-0.36-0.07c-0.47,0-0.81,1.09-1.17,2.73
		c-0.23,1.02-0.45,1.98-0.87,2.77c-1.15,2.17-3.93,2.17-4.85,2.17l-1.21-0.03c-2.1,1.26-2.94,2.03-3.29,2.42
		c4.3,1.29,3.65,4.66,3.23,6.9c-0.08,0.38-0.14,0.75-0.2,1.13c-0.24,1.73-0.24,1.73,3.69,3.01c1.41,0.46,2.68,0.75,3.81,1.02
		c2.28,0.52,3.93,0.89,4.42,2.28c0.27,0.78,0.05,1.63-0.65,2.51c-1.21,1.54-3.35,1.83-5.24,2.08c-0.69,0.1-2.2,0.3-2.44,0.56
		c-0.01,0.45-0.04,0.83-0.07,1.15c-0.02,0.25-0.06,0.58-0.03,0.65c0.05,0.13,0.58,0.57,1.14,1.03c0.18,0.15,0.49,0.22,0.93,0.22
		c1.41,0,3.54-0.8,5.26-1.43c1.27-0.47,2.34-0.86,3.24-1.06c1.02-0.22,1.52-0.3,1.9-0.3c0.74,0,1.15,0.32,1.37,0.62l0.34-0.03
		l-0.18,0.28c0.45,0.93-0.13,1.66-1.02,2.77l-0.59,0.75c-0.49,0.63,0.78,3.09,1.46,4.4c0.95,1.81,1.76,3.37,1.52,4.69
		c-0.18,1.03-0.43,2.51-2.16,2.51c-0.71,0-1.58-0.27-3.47-0.87l-0.28-0.09c-0.69-0.22-1.51-0.48-2.48-0.77
		c-0.57-0.17-1.15-0.26-1.72-0.26c-4.53,0-8.47,5.53-11.35,9.58l-0.61,0.85c-1.13,1.57-1.58,2.88-1.29,3.67
		c0.27,0.74,1.27,1.33,2.88,1.72c2.47,0.59,5.72,2.12,6.75,4.48c0.49,1.13,0.42,2.3-0.21,3.41c-1.01,1.8-2.9,2.79-5.31,2.79
		c-1.67,0-3.62-0.49-5.47-1.38l-0.74-0.36c-2.07-1-4.87-2.36-6.28-2.36c-0.22,0-0.29,0.04-0.29,0.04c-0.71,2.31-3.46,6.63-5.67,8.98
		c-0.6,0.8,0.98,5.73,1.58,7.58c1.03,3.21,1.56,4.95,1.2,6.06c-0.39,1.12-1.22,1.76-2.29,1.76c-0.49,0-0.94-0.13-1.34-0.24
		c-0.16-0.04-0.52-0.14-0.68-0.14c-0.08,0.08-0.36,0.14-0.66,0.14c-0.62,0-1.26-0.28-2.1-0.67c-1.03-0.49-2.17-1.03-3.3-1.03
		c-1.06,0-1.93,0.5-2.74,1.55c-2.15,2.81-1.5,3.93-0.09,6.36c0.49,0.83,1.09,1.87,1.6,3.09c0.62,1.52,4.98,1.52,6.4,1.52
		c0.75,0,1.52-0.01,2.27-0.03l2.13-0.02c2.54,0,5.09,0.14,5.94,1.83c1.5,3.04-2.31,6.83-6.66,10.49l-0.49,0.42
		c-0.37,0.31-0.43,0.44-0.43,0.46c0.1,0.27,1.28,1.4,2.42,2.49l0.3,0.3c1.75,1.68,6.71,2.51,10.69,3.17
		c2.42,0.41,4.51,0.76,6.04,1.23c3.01,0.95,4.32,2.68,4.89,3.98c0.59,1.32,0.64,2.8,0.15,3.87c-0.62,1.34-2.05,1.42-3.1,1.47
		c-0.82,0.04-1.66,0.09-2.14,0.57c-0.36,0.36-0.44,0.49-0.45,0.54c0.06,0.06,0.54,0.6,1.01,1.12c0.27,0.3,0.56,0.63,0.88,1.01
		c0.74,0.88,1.53,0.78,2.13,0.74c0.28-0.02,0.45-0.03,0.6-0.03c0.73,0,1.27,0.24,1.61,0.72c0.54,0.77,0.22,1.68,0.11,1.99
		c-0.45,1.29-1.82,2.8-3.38,4.55c-1.21,1.35-2.66,2.95-2.95,3.76c-0.14,0.39-0.24,0.71-0.31,0.96c0.25-0.13,0.51-0.28,0.79-0.45
		c1.84-1.11,4.52-2.71,8.63-2.9c3.06-0.13,5.93,0.56,8.22,1.12c2.11,0.52,3.94,0.94,5.3,0.75c2.57-0.37,2.7-5.07,2.7-6.02
		c-0.12-0.32-1.4-1.12-2.08-1.55c-1.48-0.92-2.86-1.78-3.3-3.12c-0.3-0.92-0.56-2.1,0.13-3.06c0.74-1.03,2.12-1.16,3.37-1.16
		c1.41,0,3.04,1.44,6.32,4.44c3.1,2.84,7.34,6.73,9.87,6.85c5.47,0.28,16.3,8.63,17.49,11.03c0.76,1.54,0.32,2.62-0.07,3.58
		c-0.33,0.8-0.71,1.67-0.66,3.3c0.04,1.42,3.67,4.04,6.08,5.79c3.24,2.35,5.79,4.19,5.95,6.18l0.05,0.61
		c0.3,3.77,0.72,5.83,1.25,6.13c0.05-0.1,0.28-0.76,0.4-1.12c0.34-1.02,0.82-2.41,2-3.59c2.26-2.27,6.02-2.8,6.74-2.88l1.17-0.12
		l0.47,1.94c2.13,9.22,3.57,15.6,4.27,18.96c1.29,6.21,1.78,11.32,2.39,18.39c0.45,5.25,2.3,10.49,3.79,14.7
		c0.56,1.55,1.03,2.89,1.37,4.03c1.4,4.75,1.41,33.57,0.01,39.03c-0.88,3.47-1.02,17.18-1.12,27.19c-0.04,5.32-0.1,9.6-0.21,12.24
		c-0.15,3.3-0.45,6.78-0.72,9.85c-0.45,5.2-0.87,9.95-0.65,13.46c0.38,6.05-4.57,40.32-5.84,47.46c-0.66,3.69-4.6,13.01-8.07,21.22
		c-1.77,4.18-3.88,9.17-4.8,11.78C479.88,495.97,486.72,495.4,492.88,495.4z M510.53,301.62c-4.57,0-7.98-15.92-8.11-18.76
		c-0.25-5.5-1.03-15.02-2.09-17.14c-1.12-2.25-1.12-2.25-1.41-2.6l-0.71-0.77l0.63-1.62h1.46l0.28,0.28
		c0.13,0.13,0.76,0.67,2.28,0.67c0.83,0,1.75-0.16,2.75-0.48c4.49-1.43,4.6-3.06,4.27-5.57c-0.11-0.79-0.17-1.4-0.21-1.87
		c-0.02-0.14-0.02-0.26-0.03-0.36c-0.13,0.02-0.25,0.07-0.4,0.12c-0.39,0.14-0.85,0.31-1.43,0.31c-0.97,0-1.81-0.48-2.57-1.48
		c-0.67-0.88-0.89-1.96-0.61-3.07c0.48-1.82,2.11-3.27,3.11-3.72c0.33-0.15,0.66-0.22,0.97-0.22c1.26,0,1.88,1.04,2.28,1.73
		c0.15,0.26,0.31,0.51,0.48,0.74l0.16,0.21c0.72,0.88,1.8,2.22,3.47,2.22l0.91-0.01c0.18,0,0.38,0,0.56-0.01
		c-0.04-0.11-0.07-0.25-0.13-0.41c-0.29-0.86-0.75-1.54-1.2-2.19c-0.7-1-1.47-2.14-1.21-3.67c0.4-2.24,1.96-3,2.52-3.11
		c0.74-0.07,1.25-0.13,1.72-0.19c0.68-0.07,1.15-0.13,1.58-0.13c2.82,0,3.07,2.42,3.15,3.22c0.25,2.37,1.65,3.78,2.89,5.02
		c1.33,1.32,0.56,2.99-0.13,4.46c-0.59,1.26-1.3,2.78-1.55,4.81c-0.18,1.5-0.32,3.82-0.48,6.51c-0.33,5.55-0.75,12.44-1.79,16.21
		c-0.66,2.39-6.74,20.25-11.13,20.85L510.53,301.62z M502.6,264.33l0.1,0.21c1.59,3.18,2.25,15.69,2.37,18.17
		c0.2,4.79,3.91,15.71,5.51,16.27c1.46-0.5,6.86-11.83,8.82-18.94c0.97-3.5,1.38-10.24,1.7-15.67c0.16-2.73,0.31-5.08,0.49-6.66
		c0.31-2.46,1.18-4.34,1.76-5.59c0.24-0.5,0.64-1.37,0.62-1.61c-1.29-1.24-3.26-3.23-3.6-6.52c-0.07-0.68-0.2-0.83-0.2-0.83
		c0,0.02-0.07-0.01-0.31-0.01c-0.34,0-0.75,0.05-1.23,0.1c-0.57,0.07-1.02,0.13-1.48,0.16c-0.13,0.09-0.39,0.35-0.51,0.97
		c-0.07,0.43,0.21,0.87,0.76,1.67c0.54,0.79,1.15,1.69,1.55,2.9c0.34,1.04,0.62,2.14,0.01,3c-0.62,0.88-1.64,0.89-2.92,0.9
		l-0.79,0.01c-1.32,0-2.38-0.38-3.23-0.9c0.18,0.45,0.22,0.98,0.28,1.54c0.04,0.45,0.1,1.03,0.19,1.77c0.5,3.74-0.33,6.61-6.08,8.45
		C505.05,264.17,503.71,264.36,502.6,264.33z M508.53,248.1c-0.4,0.32-1.15,1.09-1.33,1.83c-0.08,0.33-0.04,0.57,0.14,0.81
		c0.3,0.39,0.45,0.44,0.46,0.44c0.1,0,0.31-0.08,0.5-0.14c0.39-0.14,0.89-0.33,1.49-0.33c0.29,0.02,0.55,0.05,0.77,0.1
		c-0.42-0.42-0.75-0.83-1.01-1.16l-0.15-0.19c-0.27-0.33-0.48-0.68-0.67-1C508.67,248.34,508.6,248.22,508.53,248.1z"/>
</g>
</svg>
